<?xml version="1.0" standalone="no"?>
<!DOCTYPE svg PUBLIC "-//W3C//DTD SVG 1.1//EN" "http://www.w3.org/Graphics/SVG/1.1/DTD/svg11.dtd" >
<svg xmlns="http://www.w3.org/2000/svg">
<metadata>Generated by IcoMoon</metadata>
<defs>
<font id="icomoon" horiz-adv-x="1024">
<font-face units-per-em="1024" ascent="960" descent="-64" />
<missing-glyph horiz-adv-x="1024" />
<glyph unicode="&#x20;" horiz-adv-x="512" d="" />
<glyph unicode="&#xe900;" glyph-name="notifications-white-bell" horiz-adv-x="794" d="M279.135 814.356c0 68.561 54.768 124.327 122.56 124.327s122.56-55.765 122.56-124.327c0-20.419-4.887-40.099-13.931-57.62 117.801-70.391 208.939-246.797 208.939-393.908 0-10.357 7.37-23.989 30.885-58.329 3.828-5.59 6.201-9.087 8.665-12.793 39.919-60.039 46.962-102.272-2.086-137.176-48.842-34.757-160.12-51.171-358.372-51.171-204.164 0-315.829 16.912-362.552 53.396-46.558 36.356-37.047 75.525 6.554 140.051 2.088 3.084 2.088 3.084 4.161 6.131 23.327 34.291 30.929 48.628 30.929 59.891 0 149.543 93.835 328.562 214.125 396.901-8.092 16.766-12.436 35.372-12.436 54.627zM285.403 156.743c33.635-1.439 71.226-2.184 112.951-2.184 187.476 0 291.713 15.376 328.687 41.687 17.941 12.767 15.488 27.478-10.864 67.112-2.302 3.463-4.569 6.803-8.274 12.214-30.832 45.027-39.84 61.687-39.84 87.256 0 139.236-94.966 312.309-205.485 361.123-15.977 7.057-20.352 27.689-8.614 40.622 12.199 13.441 19.091 31.017 19.091 49.783 0 40.489-32.054 73.127-71.36 73.127s-71.36-32.638-71.36-73.127c0-18.046 6.369-34.996 17.736-48.248 11.35-13.232 6.443-33.691-9.674-40.335-112.206-46.256-209.752-221.57-209.752-362.945 0-26.227-9.522-44.187-39.796-88.689-2.051-3.016-2.051-3.016-4.070-5.998-29.525-43.695-33.183-58.759-17.466-71.031 24.22-18.912 83.609-32.365 184.411-38.615-7.38-5.82-11.267-15.501-9.224-25.328 2.721-13.087 6.567-23.584 15.498-44.815l0.409-0.971c14.013-33.305 16.799-46.047 12.073-55.385l-1.546-3.776c-9.019-28.265-38.545-43.583-65.947-34.517-24.807 8.207-36.335 48.676-18.247 72.883 7.102 9.504 16.072 24.687 27.358 46.071 6.599 12.504 1.812 27.99-10.691 34.589s-27.99 1.813-34.589-10.691c-10.132-19.198-17.979-32.479-23.091-39.321-38.6-51.655-15.506-132.724 43.179-152.14 53.97-17.856 111.799 11.607 130.167 65.621 13.304 27.62 8.318 49.487-11.471 96.522l-0.407 0.966c-7.633 18.147-10.748 26.647-12.564 35.385-1.082 5.207-3.676 9.713-7.226 13.156z" />
<glyph unicode="&#xe901;" glyph-name="additional-menu" d="M512 737.391c-61.472 0-111.304 49.833-111.304 111.304s49.833 111.304 111.304 111.304c61.472 0 111.304-49.833 111.304-111.304s-49.833-111.304-111.304-111.304zM512 336.696c-61.472 0-111.304 49.833-111.304 111.304s49.833 111.304 111.304 111.304c61.472 0 111.304-49.833 111.304-111.304s-49.833-111.304-111.304-111.304zM512-64c-61.472 0-111.304 49.833-111.304 111.304s49.833 111.304 111.304 111.304c61.472 0 111.304-49.833 111.304-111.304s-49.833-111.304-111.304-111.304z" />
<glyph unicode="&#xe902;" glyph-name="adhoc-xl" d="M99.556-49.778h824.889v824.889h-412.444v99.556h406.605c-1.869 11.862-3.049 25.586-3.049 35.556s1.18 23.693 3.049 35.556h-797.716c-8.353 0-21.333-20.137-21.333-35.556s12.98-35.556 21.333-35.556h106.667v-99.556h-106.667c-7.133 0-14.226 0.717-21.333 2.105v-826.994zM938.667-64h-853.333v859.858c11.182-3.956 23.058-6.524 35.556-6.524h92.444v71.111h-92.444c-19.582 0-35.556 30.16-35.556 49.778s15.973 49.778 35.556 49.778h815.413c-3.956-11.182-6.524-37.244-6.524-49.778s2.569-38.596 6.524-49.778h-410.080v-71.111h412.444v-853.333zM366.722 575.245l145.278-132.471v503.003h-284.444v-502.563l139.167 132.030zM213.333 410.118v549.882h312.889v-549.441l-159.308 145.264-153.581-145.705zM547.556 113.778h284.444v71.111h-284.444v-71.111zM540.444 199.111h298.667c3.927 0 7.111-3.184 7.111-7.111v-85.333c0-3.927-3.184-7.111-7.111-7.111h-298.667c-3.927 0-7.111 3.184-7.111 7.111v85.333c0 3.927 3.184 7.111 7.111 7.111z" />
<glyph unicode="&#xe903;" glyph-name="agenda" d="M512-51.81c-276.037 0-499.81 223.772-499.81 499.81s223.772 499.81 499.81 499.81c276.037 0 499.81-223.772 499.81-499.81s-223.772-499.81-499.81-499.81zM512-27.429c262.572 0 475.429 212.857 475.429 475.429s-212.857 475.429-475.429 475.429c-262.572 0-475.429-212.857-475.429-475.429s212.857-475.429 475.429-475.429zM292.571 569.905h-24.381c-16.254 0-16.254 24.381 0 24.381h24.381c16.254 0 16.254-24.381 0-24.381zM292.571 478.476h-24.381c-16.254 0-16.254 24.381 0 24.381h24.381c16.254 0 16.254-24.381 0-24.381zM292.571 387.048h-24.381c-16.254 0-16.254 24.381 0 24.381h24.381c16.254 0 16.254-24.381 0-24.381zM292.571 295.619h-24.381c-16.254 0-16.254 24.381 0 24.381h24.381c16.254 0 16.254-24.381 0-24.381zM365.714 569.905h390.095c6.733 0 12.19 5.458 12.19 12.19s-5.458 12.19-12.19 12.19h-390.095c-6.733 0-12.19-5.458-12.19-12.19s5.458-12.19 12.19-12.19zM365.714 478.476h390.095c6.733 0 12.19 5.458 12.19 12.19s-5.458 12.19-12.19 12.19h-390.095c-6.733 0-12.19-5.458-12.19-12.19s5.458-12.19 12.19-12.19zM365.714 387.048h390.095c6.733 0 12.19 5.458 12.19 12.19s-5.458 12.19-12.19 12.19h-390.095c-6.733 0-12.19-5.458-12.19-12.19s5.458-12.19 12.19-12.19zM365.714 295.619h390.095c6.733 0 12.19 5.458 12.19 12.19s-5.458 12.19-12.19 12.19h-390.095c-6.733 0-12.19-5.458-12.19-12.19s5.458-12.19 12.19-12.19z" />
<glyph unicode="&#xe904;" glyph-name="arrow-right" d="M888.591 493.459l-289.274 286.821 52.162 51.72 372.521-369.362-0.439-0.435 0.439-0.345v-10.721l-372.521-369.362-52.162 51.72 289.274 286.821h-888.591v73.143h888.591z" />
<glyph unicode="&#xe905;" glyph-name="back" d="M213.256 517.818h719.977c38.996 0 69.969-31.259 69.969-69.818 0-38.828-31.326-69.818-69.969-69.818h-721.774l310.053-292.828c45.119-42.612-18.8-110.291-63.918-67.678l-417.947 394.728c-0.59 0.537-1.169 1.087-1.734 1.651-10.491 10.261-14.787 21.91-14.635 33.097-0.151 11.187 4.144 22.837 14.635 33.097 0.565 0.563 1.144 1.114 1.734 1.651l417.947 394.728c45.119 42.612 109.037-25.066 63.918-67.678l-308.256-291.13z" />
<glyph unicode="&#xe906;" glyph-name="bfsi-xl" d="M21.333 842.789h981.333v88.766h-981.333v-88.766zM1016.889 945.778v-117.211h-1009.778v117.211h1009.778zM982.559 842.789v-735.142h-941.119v735.142h941.119zM55.663 828.567v-706.697h912.674v706.697h-912.674zM556.383 8.828c0 24.515-19.869 44.383-44.383 44.383s-44.383-19.869-44.383-44.383c0-24.515 19.869-44.383 44.383-44.383s44.383 19.869 44.383 44.383zM519.111 106.667v-39.661c29.015-3.509 51.494-28.216 51.494-58.178 0-32.369-26.236-58.605-58.605-58.605s-58.605 26.236-58.605 58.605c0 29.962 22.479 54.67 51.494 58.178v39.661h-490.667c-3.927 0-7.111 3.184-7.111 7.111s3.184 7.111 7.111 7.111h494.172c1.057 0.623 2.29 0.981 3.606 0.981s2.549-0.358 3.606-0.981h494.172c3.927 0 7.111-3.184 7.111-7.111s-3.184-7.111-7.111-7.111h-490.667zM874.667 717.873c-0.695 0.227-1.437 0.349-2.207 0.349h-137.318c-3.927 0-7.111-3.184-7.111-7.111s3.184-7.111 7.111-7.111h137.318c0.77 0 1.512 0.123 2.207 0.349v-100.254c-0.695 0.227-1.437 0.349-2.207 0.349h-257.471c-3.927 0-7.111-3.184-7.111-7.111s3.184-7.111 7.111-7.111h257.471c0.77 0 1.512 0.123 2.207 0.349v-86.032c-0.695 0.227-1.437 0.349-2.207 0.349h-205.977c-3.927 0-7.111-3.184-7.111-7.111s3.184-7.111 7.111-7.111h205.977c0.77 0 1.512 0.123 2.207 0.349v-86.032c-0.695 0.227-1.437 0.349-2.207 0.349h-85.824c-3.927 0-7.111-3.184-7.111-7.111s3.184-7.111 7.111-7.111h85.824c0.77 0 1.512 0.123 2.207 0.349v-114.476c-0.695 0.227-1.437 0.349-2.207 0.349h-137.318c-3.927 0-7.111-3.184-7.111-7.111s3.184-7.111 7.111-7.111h137.318c0.77 0 1.512 0.123 2.207 0.349v-45.713c0-3.927 3.184-7.111 7.111-7.111s7.111 3.184 7.111 7.111v532.107c0 3.927-3.184 7.111-7.111 7.111s-7.111-3.184-7.111-7.111v-31.981zM220.444 449.028c-33.7 7.688-58.851 37.845-58.851 73.874 0 3.927 3.184 7.111 7.111 7.111s7.111-3.184 7.111-7.111c0-33.99 27.558-61.548 61.548-61.548 18.349 0 35.371 8.074 47.008 21.82 13.162 15.565 10.117 39.688-6.488 52.601l-89.771 69.826c-22.878 17.792-27.090 51.165-8.614 73.014 10.654 12.584 24.997 21.313 40.946 24.955v25.309c0 3.927 3.184 7.111 7.111 7.111s7.111-3.184 7.111-7.111v-23.455c0.896 0.032 1.796 0.047 2.697 0.047 41.844 0 75.77-33.926 75.77-75.77 0-3.927-3.184-7.111-7.111-7.111s-7.111 3.184-7.111 7.111c0 33.99-27.558 61.548-61.548 61.548-18.349 0-35.371-8.074-47.008-21.82-13.162-15.565-10.117-39.688 6.488-52.601l89.771-69.826c22.878-17.792 27.090-51.165 8.614-73.014-14.313-16.907-35.288-26.856-57.866-26.856-0.903 0-1.802 0.016-2.697 0.047v-23.455c0-3.927-3.184-7.111-7.111-7.111s-7.111 3.184-7.111 7.111v25.304zM168.705 234.667c-3.927 0-7.111 3.184-7.111 7.111s3.184 7.111 7.111 7.111h137.318c3.927 0 7.111-3.184 7.111-7.111s-3.184-7.111-7.111-7.111h-137.318zM340.352 320c-3.927 0-7.111 3.184-7.111 7.111s3.184 7.111 7.111 7.111h51.494c3.927 0 7.111-3.184 7.111-7.111s-3.184-7.111-7.111-7.111h-51.494zM168.705 320c-3.927 0-7.111 3.184-7.111 7.111s3.184 7.111 7.111 7.111h34.33c3.927 0 7.111-3.184 7.111-7.111s-3.184-7.111-7.111-7.111h-34.33zM288.858 320.736c0-9.475-7.69-17.165-17.165-17.165s-17.165 7.69-17.165 17.165c0 9.475 7.69 17.165 17.165 17.165s17.165-7.69 17.165-17.165zM409.011 234.912c0-9.475-7.69-17.165-17.165-17.165s-17.165 7.69-17.165 17.165c0 9.475 7.69 17.165 17.165 17.165s17.165-7.69 17.165-17.165z" />
<glyph unicode="&#xe907;" glyph-name="bfsi-m" d="M460.8 42.576c-130.156 21.48-230.4 123.382-230.4 248.628 0 28.277 22.923 51.2 51.2 51.2s51.2-22.923 51.2-51.2c0-81.425 78.831-150.403 179.2-150.403 54.935 0 105.37 20.933 139.151 55.848 30.291 31.345 23.452 78.756-17.334 106.51l-301.244 205.028c-91.709 62.407-109.223 183.82-33.336 262.347 42.064 43.475 98.941 72.564 161.564 82.891v55.376c0 28.277 22.923 51.2 51.2 51.2s51.2-22.923 51.2-51.2v-55.376c130.156-21.48 230.4-123.382 230.4-248.628 0-28.277-22.923-51.2-51.2-51.2s-51.2 22.923-51.2 51.2c0 81.425-78.831 150.403-179.2 150.403-54.935 0-105.37-20.933-139.151-55.848-30.291-31.345-23.452-78.756 17.334-106.51l301.244-205.028c91.709-62.407 109.223-183.82 33.336-262.347-42.064-43.475-98.941-72.564-161.564-82.891v-55.376c0-28.277-22.923-51.2-51.2-51.2s-51.2 22.923-51.2 51.2v55.376z" />
<glyph unicode="&#xe908;" glyph-name="bottom-m" d="M510.259 171.659c9.863-0.58 20.307 2.901 29.59 12.184l472.615 472.615c37.132 37.132-18.566 92.83-55.698 55.698l-444.766-444.766-444.766 444.766c-37.132 37.132-92.83-18.566-55.698-55.698l472.615-472.615c9.283-9.283 19.726-12.764 29.59-12.184h-3.481z" />
<glyph unicode="&#xe909;" glyph-name="radio-off" d="M938.667 448c0 235.639-191.027 426.667-426.667 426.667s-426.667-191.027-426.667-426.667c0-235.639 191.027-426.667 426.667-426.667s426.667 191.027 426.667 426.667zM1024 448c0-282.768-229.232-512-512-512s-512 229.232-512 512c0 282.768 229.232 512 512 512s512-229.232 512-512z" />
<glyph unicode="&#xe90a;" glyph-name="close-in-circle" d="M512-51.81c-276.037 0-499.81 223.772-499.81 499.81s223.772 499.81 499.81 499.81c276.037 0 499.81-223.772 499.81-499.81s-223.772-499.81-499.81-499.81zM512-27.429c262.572 0 475.429 212.857 475.429 475.429s-212.857 475.429-475.429 475.429c-262.572 0-475.429-212.857-475.429-475.429s212.857-475.429 475.429-475.429zM524.19 482.48l-112.060 112.060c-9.4 9.4-24.958 9.521-34.479-0.001-9.588-9.588-9.522-24.958-0.001-34.479l112.060-112.060-112.060-112.060c-9.521-9.521-9.587-24.891 0.001-34.479 9.521-9.521 25.079-9.401 34.479-0.001l112.060 112.060 112.060-112.060c9.4-9.4 24.958-9.521 34.479 0.001 9.588 9.588 9.522 24.958 0.001 34.479l-112.060 112.060 112.060 112.060c9.521 9.521 9.587 24.891-0.001 34.479-9.521 9.521-25.079 9.401-34.479 0.001l-112.060-112.060z" />
<glyph unicode="&#xe90b;" glyph-name="close-l" d="M467.066 450.341l-467.066-467.066 42.593-42.593 467.066 467.066 467.066-467.066 42.593 42.593-467.066 467.066 467.066 467.066-42.593 42.593-467.066-467.066-467.066 467.066-42.593-42.593 467.066-467.066z" />
<glyph unicode="&#xe90c;" glyph-name="create-by-industry-xl" d="M384 678.4c0-38.884-31.516-70.4-70.4-70.4s-70.4 31.516-70.4 70.4c0 38.884 31.516 70.4 70.4 70.4s70.4-31.516 70.4-70.4zM371.2 678.4c0 31.815-25.785 57.6-57.6 57.6s-57.6-25.785-57.6-57.6c0-31.815 25.785-57.6 57.6-57.6s57.6 25.785 57.6 57.6zM588.8 678.4c0-38.884-31.516-70.4-70.4-70.4s-70.4 31.516-70.4 70.4c0 38.884 31.516 70.4 70.4 70.4s70.4-31.516 70.4-70.4zM576 678.4c0 31.815-25.785 57.6-57.6 57.6s-57.6-25.785-57.6-57.6c0-31.815 25.785-57.6 57.6-57.6s57.6 25.785 57.6 57.6zM588.8 883.2c0-38.884-31.516-70.4-70.4-70.4s-70.4 31.516-70.4 70.4c0 38.884 31.516 70.4 70.4 70.4s70.4-31.516 70.4-70.4zM576 883.2c0 31.815-25.785 57.6-57.6 57.6s-57.6-25.785-57.6-57.6c0-31.815 25.785-57.6 57.6-57.6s57.6 25.785 57.6 57.6zM780.8 678.4c0-38.884-31.516-70.4-70.4-70.4s-70.4 31.516-70.4 70.4c0 38.884 31.516 70.4 70.4 70.4s70.4-31.516 70.4-70.4zM768 678.4c0 31.815-25.785 57.6-57.6 57.6s-57.6-25.785-57.6-57.6c0-31.815 25.785-57.6 57.6-57.6s57.6 25.785 57.6 57.6zM384 460.8c0-38.884-31.516-70.4-70.4-70.4s-70.4 31.516-70.4 70.4c0 38.884 31.516 70.4 70.4 70.4s70.4-31.516 70.4-70.4zM371.2 460.8c0 31.815-25.785 57.6-57.6 57.6s-57.6-25.785-57.6-57.6c0-31.815 25.785-57.6 57.6-57.6s57.6 25.785 57.6 57.6zM588.8 460.8c0-38.884-31.516-70.4-70.4-70.4s-70.4 31.516-70.4 70.4c0 38.884 31.516 70.4 70.4 70.4s70.4-31.516 70.4-70.4zM576 460.8c0 31.815-25.785 57.6-57.6 57.6s-57.6-25.785-57.6-57.6c0-31.815 25.785-57.6 57.6-57.6s57.6 25.785 57.6 57.6zM780.8 460.8c0-38.884-31.516-70.4-70.4-70.4s-70.4 31.516-70.4 70.4c0 38.884 31.516 70.4 70.4 70.4s70.4-31.516 70.4-70.4zM768 460.8c0 31.815-25.785 57.6-57.6 57.6s-57.6-25.785-57.6-57.6c0-31.815 25.785-57.6 57.6-57.6s57.6 25.785 57.6 57.6zM972.8 460.8c0-38.884-31.516-70.4-70.4-70.4s-70.4 31.516-70.4 70.4c0 38.884 31.516 70.4 70.4 70.4s70.4-31.516 70.4-70.4zM960 460.8c0 31.815-25.785 57.6-57.6 57.6s-57.6-25.785-57.6-57.6c0-31.815 25.785-57.6 57.6-57.6s57.6 25.785 57.6 57.6zM192 460.8c0-38.884-31.516-70.4-70.4-70.4s-70.4 31.516-70.4 70.4c0 38.884 31.516 70.4 70.4 70.4s70.4-31.516 70.4-70.4zM179.2 460.8c0 31.815-25.785 57.6-57.6 57.6s-57.6-25.785-57.6-57.6c0-31.815 25.785-57.6 57.6-57.6s57.6 25.785 57.6 57.6zM384 230.4c0-38.884-31.516-70.4-70.4-70.4s-70.4 31.516-70.4 70.4c0 38.884 31.516 70.4 70.4 70.4s70.4-31.516 70.4-70.4zM371.2 230.4c0 31.815-25.785 57.6-57.6 57.6s-57.6-25.785-57.6-57.6c0-31.815 25.785-57.6 57.6-57.6s57.6 25.785 57.6 57.6zM588.8 230.4c0-38.884-31.516-70.4-70.4-70.4s-70.4 31.516-70.4 70.4c0 38.884 31.516 70.4 70.4 70.4s70.4-31.516 70.4-70.4zM576 230.4c0 31.815-25.785 57.6-57.6 57.6s-57.6-25.785-57.6-57.6c0-31.815 25.785-57.6 57.6-57.6s57.6 25.785 57.6 57.6zM588.8 12.8c0-38.884-31.516-70.4-70.4-70.4s-70.4 31.516-70.4 70.4c0 38.884 31.516 70.4 70.4 70.4s70.4-31.516 70.4-70.4zM576 12.8c0 31.815-25.785 57.6-57.6 57.6s-57.6-25.785-57.6-57.6c0-31.815 25.785-57.6 57.6-57.6s57.6 25.785 57.6 57.6zM780.8 230.4c0-38.884-31.516-70.4-70.4-70.4s-70.4 31.516-70.4 70.4c0 38.884 31.516 70.4 70.4 70.4s70.4-31.516 70.4-70.4zM768 230.4c0 31.815-25.785 57.6-57.6 57.6s-57.6-25.785-57.6-57.6c0-31.815 25.785-57.6 57.6-57.6s57.6 25.785 57.6 57.6z" />
<glyph unicode="&#xe90d;" glyph-name="create-by-solution-xl" d="M939.671 357.647c0-23.289-18.876-42.165-42.165-42.165s-42.165 18.876-42.165 42.165c0 23.289 18.876 42.165 42.165 42.165s42.165-18.876 42.165-42.165zM927.624 357.647c0 16.635-13.482 30.118-30.118 30.118s-30.118-13.482-30.118-30.118c0-16.635 13.482-30.118 30.118-30.118s30.118 13.482 30.118 30.118zM542.118 797.365c0-13.308-10.786-24.094-24.094-24.094s-24.094 10.786-24.094 24.094c0 13.308 10.786 24.094 24.094 24.094s24.094-10.786 24.094-24.094zM530.071 797.365c0 6.654-5.393 12.047-12.047 12.047s-12.047-5.393-12.047-12.047c0-6.654 5.393-12.047 12.047-12.047s12.047 5.393 12.047 12.047zM686.682 700.988c0-33.27-26.966-60.235-60.235-60.235s-60.235 26.966-60.235 60.235c0 33.27 26.966 60.235 60.235 60.235s60.235-26.966 60.235-60.235zM674.635 700.988c0 26.616-21.572 48.188-48.188 48.188s-48.188-21.572-48.188-48.188c0-26.616 21.572-48.188 48.188-48.188s48.188 21.572 48.188 48.188zM1024 496.188c0-33.27-26.966-60.235-60.235-60.235s-60.235 26.966-60.235 60.235c0 33.27 26.966 60.235 60.235 60.235s60.235-26.966 60.235-60.235zM1011.953 496.188c0 26.616-21.572 48.188-48.188 48.188s-48.188-21.572-48.188-48.188c0-26.616 21.572-48.188 48.188-48.188s48.188 21.572 48.188 48.188zM252.988 297.412c0-23.289-18.876-42.165-42.165-42.165s-42.165 18.876-42.165 42.165c0 23.289 18.876 42.165 42.165 42.165s42.165-18.876 42.165-42.165zM240.941 297.412c0 16.635-13.482 30.118-30.118 30.118s-30.118-13.482-30.118-30.118c0-16.635 13.482-30.118 30.118-30.118s30.118 13.482 30.118 30.118zM566.212 574.494c0-123.099-99.772-222.871-222.871-222.871s-222.871 99.772-222.871 222.871c0 123.099 99.772 222.871 222.871 222.871s222.871-99.772 222.871-222.871zM554.165 574.494c0 116.445-94.378 210.824-210.824 210.824s-210.824-94.378-210.824-210.824c0-116.445 94.378-210.824 210.824-210.824s210.824 94.378 210.824 210.824zM84.329 520.282c0-19.962-16.179-36.141-36.141-36.141s-36.141 16.179-36.141 36.141c0 19.962 16.179 36.141 36.141 36.141s36.141-16.179 36.141-36.141zM72.282 520.282c0 13.308-10.786 24.094-24.094 24.094s-24.094-10.786-24.094-24.094c0-13.308 10.786-24.094 24.094-24.094s24.094 10.786 24.094 24.094zM915.576 616.659c0-19.962-16.179-36.141-36.141-36.141s-36.141 16.179-36.141 36.141c0 19.962 16.179 36.141 36.141 36.141s36.141-16.179 36.141-36.141zM903.529 616.659c0 13.308-10.786 24.094-24.094 24.094s-24.094-10.786-24.094-24.094c0-13.308 10.786-24.094 24.094-24.094s24.094 10.786 24.094 24.094zM867.388 490.165c0-69.867-56.627-126.494-126.494-126.494s-126.494 56.627-126.494 126.494c0 69.867 56.627 126.494 126.494 126.494s126.494-56.627 126.494-126.494zM855.341 490.165c0 63.213-51.234 114.447-114.447 114.447s-114.447-51.234-114.447-114.447c0-63.213 51.234-114.447 114.447-114.447s114.447 51.234 114.447 114.447zM132.518 381.741c0-36.597-29.662-66.259-66.259-66.259s-66.259 29.662-66.259 66.259c0 36.597 29.662 66.259 66.259 66.259s66.259-29.662 66.259-66.259zM120.471 381.741c0 29.943-24.269 54.212-54.212 54.212s-54.212-24.269-54.212-54.212c0-29.943 24.269-54.212 54.212-54.212s54.212 24.269 54.212 54.212zM239.173 598.243l87.406-87.246 144.765 163.861 9.028-7.976-149.004-168.659c-2.298-2.601-6.313-2.727-8.77-0.275l-91.937 91.768 8.511 8.526zM493.929 188.988c0-63.213-51.234-114.447-114.447-114.447s-114.447 51.234-114.447 114.447c0 63.213 51.234 114.447 114.447 114.447s114.447-51.234 114.447-114.447zM481.882 188.988c0 56.559-45.841 102.4-102.4 102.4s-102.4-45.841-102.4-102.4c0-56.559 45.841-102.4 102.4-102.4s102.4 45.841 102.4 102.4zM867.388 207.059c0-53.232-43.145-96.376-96.376-96.376s-96.376 43.145-96.376 96.376c0 53.232 43.145 96.376 96.376 96.376s96.376-43.145 96.376-96.376zM855.341 207.059c0 46.578-37.751 84.329-84.329 84.329s-84.329-37.751-84.329-84.329c0-46.578 37.751-84.329 84.329-84.329s84.329 37.751 84.329 84.329zM650.541 176.941c0-29.943-24.269-54.212-54.212-54.212s-54.212 24.269-54.212 54.212c0 29.943 24.269 54.212 54.212 54.212s54.212-24.269 54.212-54.212zM638.494 176.941c0 23.289-18.875 42.165-42.165 42.165s-42.165-18.875-42.165-42.165c0-23.289 18.875-42.165 42.165-42.165s42.165 18.875 42.165 42.165zM602.353 345.6c0-29.943-24.269-54.212-54.212-54.212s-54.212 24.269-54.212 54.212c0 29.943 24.269 54.212 54.212 54.212s54.212-24.269 54.212-54.212zM590.306 345.6c0 23.289-18.875 42.165-42.165 42.165s-42.165-18.875-42.165-42.165c0-23.289 18.875-42.165 42.165-42.165s42.165 18.875 42.165 42.165zM843.294 707.012c0-29.943-24.269-54.212-54.212-54.212s-54.212 24.269-54.212 54.212c0 29.943 24.269 54.212 54.212 54.212s54.212-24.269 54.212-54.212zM831.247 707.012c0 23.289-18.875 42.165-42.165 42.165s-42.165-18.875-42.165-42.165c0-23.289 18.875-42.165 42.165-42.165s42.165 18.875 42.165 42.165z" />
<glyph unicode="&#xe90e;" glyph-name="create-presentations-xl" d="M504.789 109.070h-497.577c-3.983 0-7.211 3.229-7.211 7.211s3.229 7.211 7.211 7.211h27.602v717.645h-34.813v118.862h1024v-118.862h-34.813v-717.645h27.602c3.983 0 7.211-3.229 7.211-7.211s-3.229-7.211-7.211-7.211h-497.577v-44.014c0-3.983-3.229-7.211-7.211-7.211s-7.211 3.229-7.211 7.211v44.014zM571.431-4.569c0-32.825-26.606-59.431-59.431-59.431s-59.431 26.606-59.431 59.431c0 32.825 26.606 59.431 59.431 59.431s59.431-26.606 59.431-59.431zM557.008-4.569c0 24.86-20.148 45.008-45.008 45.008s-45.008-20.148-45.008-45.008c0-24.86 20.148-45.008 45.008-45.008s45.008 20.148 45.008 45.008zM49.236 841.138v-716.651h925.529v716.651h-925.529zM14.423 945.577v-90.017h995.155v90.017h-995.155zM263.127 448h-28.493v142.268h24.845l65.465-90.606h1.775v90.606h28.493v-142.268h-24.746l-65.563 91h-1.775v-91zM509.211 472.549v-24.549h-94.254v142.268h94.254v-24.549h-64.479v-34.31h60.831v-22.972h-60.831v-35.887h64.479zM649.606 543.831l-1.923-6.951c-1.282-4.634-2.925-10.582-4.93-17.845s-4.141-14.969-6.408-23.12c-2.268-8.15-4.42-15.873-6.458-23.169s-3.697-13.244-4.979-17.845l-1.923-6.901h-28.099l-37.761 142.268h31.056l22.183-101.648h1.577l25.93 101.648h25.141l26.423-101.648h1.577l21.887 101.648h30.859l-37.761-142.268h-28l-26.817 95.831h-1.577zM594.059 714.817c-3.983 0-7.211 3.229-7.211 7.211s3.229 7.211 7.211 7.211h283.477c3.983 0 7.211-3.229 7.211-7.211s-3.229-7.211-7.211-7.211h-283.477zM814.635 599.437c-3.983 0-7.211 3.229-7.211 7.211s3.229 7.211 7.211 7.211h62.902c3.983 0 7.211-3.229 7.211-7.211s-3.229-7.211-7.211-7.211h-62.902zM865.999 498.479c-3.983 0-7.211 3.229-7.211 7.211s3.229 7.211 7.211 7.211h11.538c3.983 0 7.211-3.229 7.211-7.211s-3.229-7.211-7.211-7.211h-11.538zM845.826 397.521c-3.983 0-7.211 3.229-7.211 7.211s3.229 7.211 7.211 7.211h31.711c3.983 0 7.211-3.229 7.211-7.211s-3.229-7.211-7.211-7.211h-31.711zM738.285 267.718c-3.983 0-7.211 3.229-7.211 7.211s3.229 7.211 7.211 7.211h139.252c3.983 0 7.211-3.229 7.211-7.211s-3.229-7.211-7.211-7.211h-139.252zM163.87 238.873c-3.983 0-7.211 3.229-7.211 7.211s3.229 7.211 7.211 7.211h139.252c3.983 0 7.211-3.229 7.211-7.211s-3.229-7.211-7.211-7.211h-139.252zM163.87 325.408c-3.983 0-7.211 3.229-7.211 7.211s3.229 7.211 7.211 7.211h34.813c3.983 0 7.211-3.229 7.211-7.211s-3.229-7.211-7.211-7.211h-34.813zM407.561 239.122c0-9.608-7.798-17.407-17.407-17.407s-17.407 7.798-17.407 17.407c0 9.608 7.798 17.407 17.407 17.407s17.407-7.798 17.407-17.407z" />
<glyph unicode="&#xe90f;" glyph-name="curriculum-xl" d="M12.642 657.493v189.583h137.835v83.944h12.642v-83.944h283.063v83.944h12.642v-83.944h238.707v83.944h12.642v-83.944h189.583v-887.114h-887.114v684.889h-2.625v12.642h2.625zM25.284 657.493h861.83v176.941h-176.941v-71.477h-12.642v71.477h-238.707v-71.477h-12.642v71.477h-283.063v-71.477h-12.642v71.477h-125.193v-176.941zM25.284 644.851v-672.247h861.83v672.247h-861.83zM143.566 386.591h122.568v122.568h-122.568v-122.568zM130.924 521.801h147.852v-147.852h-147.852v147.852zM143.566 120.456h122.568v122.568h-122.568v-122.568zM130.924 255.667h147.852v-147.852h-147.852v147.852zM498.137 371.707l79.191-105.954 429.275 383.255 8.419-9.43-439.564-392.44-87.448 117.001 10.126 7.568zM387.522 117.081h392.078v392.078h-392.078v-392.078zM374.88 521.801h417.362v-417.362h-417.362v417.362z" />
<glyph unicode="&#xe910;" glyph-name="digital-health-xl" d="M21.333 272.184v-226.084h981.333v226.084h-981.333zM1016.889 286.406v-254.529h-1009.778v254.529h1009.778zM55.663-22.559h88.766v54.437h-88.766v-54.437zM158.651 46.1v-82.881h-117.211v82.881h117.211zM879.571-22.559h88.766v54.437h-88.766v-54.437zM982.559 46.1v-82.881h-117.211v82.881h117.211zM7.111 272.184v666.483h1009.778v-666.483h-1009.778zM21.333 286.406h981.333v638.038h-981.333v-638.038zM300.128 730.4c15.432 13.296 26.301 30.341 30.901 48.898 2.099 8.473 2.527 15.045 2.061 19.567-0.048 0.461-0.084 0.701-0.196 1.458-2.95 31.608-26.201 55.463-55.794 55.463-20.668 0-40.675-15.895-50.401-37.825l-6.501-14.658-6.501 14.658c-9.726 21.931-29.732 37.825-50.401 37.825-29.594 0-52.828-23.838-55.904-56.208-0.003-0.014-0.039-0.252-0.087-0.712-0.466-4.514-0.038-11.086 2.060-19.566 4.603-18.553 15.479-35.613 30.884-48.886l79.947-68.427 79.929 68.412zM277.1 870.008c37.326 0 66.354-29.782 69.846-67.622 0.092-0.456 0.197-1.146 0.292-2.063 0.632-6.132 0.096-14.354-2.403-24.446-5.33-21.501-17.816-41.083-35.44-56.267l-83.405-71.387c-3.342-2.841-8.238-2.841-11.598 0.016l-83.404 71.386c-17.598 15.161-30.090 34.757-35.424 56.255-2.499 10.1-3.035 18.321-2.403 24.446 0.095 0.917 0.2 1.607 0.183 1.321 3.62 38.598 32.629 68.36 69.955 68.36 22.658 0 43.747-13.921 56.901-34.259 13.154 20.338 34.243 34.259 56.901 34.259zM855.295 839.111c-3.927 0-7.111 3.184-7.111 7.111s3.184 7.111 7.111 7.111h68.659c3.927 0 7.111-3.184 7.111-7.111s-3.184-7.111-7.111-7.111h-68.659zM803.801 782.222c-3.927 0-7.111 3.184-7.111 7.111s3.184 7.111 7.111 7.111h137.318c3.927 0 7.111-3.184 7.111-7.111s-3.184-7.111-7.111-7.111h-137.318zM923.954 725.333c3.927 0 7.111-3.184 7.111-7.111s-3.184-7.111-7.111-7.111h-68.659c-3.927 0-7.111 3.184-7.111 7.111s3.184 7.111 7.111 7.111h68.659zM339.935 587.322l-78.932-173.651c-1.154-2.539-3.685-4.169-6.474-4.169h-137.318c-3.927 0-7.111 3.184-7.111 7.111s3.184 7.111 7.111 7.111h132.739l83.929 184.644c2.591 5.7 10.751 5.512 13.076-0.302l97.434-243.584 78.56 141.408c2.663 4.794 9.52 4.896 12.326 0.185l42.172-70.82 64.912 308.951c1.624 7.728 12.752 7.447 13.983-0.353l50.547-320.128h199.901c3.927 0 7.111-3.184 7.111-7.111s-3.184-7.111-7.111-7.111h-205.977c-3.499 0-6.478 2.546-7.024 6.002l-45.463 287.931-60.707-288.936c-1.332-6.339-9.755-7.742-13.069-2.176l-45.171 75.856-79.821-143.678c-2.909-5.237-10.594-4.75-12.819 0.812l-96.804 242.009zM264.582 159.142c0 33.99-27.558 61.548-61.548 61.548s-61.548-27.558-61.548-61.548c0-33.99 27.558-61.548 61.548-61.548s61.548 27.558 61.548 61.548zM278.805 159.142c0-41.844-33.926-75.77-75.77-75.77s-75.77 33.926-75.77 75.77c0 41.844 33.926 75.77 75.77 75.77s75.77-33.926 75.77-75.77zM639.264 97.594h226.084v123.096h-226.084v-123.096zM632.153 234.912h240.307c3.927 0 7.111-3.184 7.111-7.111v-137.318c0-3.927-3.184-7.111-7.111-7.111h-240.307c-3.927 0-7.111 3.184-7.111 7.111v137.318c0 3.927 3.184 7.111 7.111 7.111zM639.264 97.594h71.602v123.096h-71.602v-123.096zM632.153 234.912h85.824c3.927 0 7.111-3.184 7.111-7.111v-137.318c0-3.927-3.184-7.111-7.111-7.111h-85.824c-3.927 0-7.111 3.184-7.111 7.111v137.318c0 3.927 3.184 7.111 7.111 7.111zM203.034 152.031v14.222h68.659v-14.222h-68.659zM486.856 202.654c-24.037 24.053-62.993 24.053-87.029 0.002-24.034-24.034-24.034-62.993 0-87.027s62.993-24.034 87.029 0.002c24.049 24.034 24.049 62.99 0 87.024zM496.913 212.71c29.604-29.586 29.604-77.552-0.002-107.139-29.588-29.588-77.552-29.588-107.14 0s-29.588 77.552-0.002 107.139c29.589 29.608 77.555 29.608 107.144 0z" />
<glyph unicode="&#xe911;" glyph-name="digital-media-m" d="M855.882 825.197v13.957c0 40.874 32.914 74.316 73.143 74.316s73.143-33.442 73.143-74.316v-792.701c0-40.874-32.914-74.316-73.143-74.316s-73.143 33.442-73.143 74.316v13.957l-173.217 55.465c-0.076-13.037-2.092-26.268-6.24-39.303-22.082-69.236-96.363-107.747-165.611-84.93l-176.753 58.174c-68.622 22.593-105.849 96.651-84.005 165.255 3.95 12.386 9.57 23.789 16.534 34.034l-132.183 42.326c-11.204-13.453-27.926-22.030-46.524-22.030-33.524 0-60.952 27.868-60.952 61.93v222.947c0 34.061 27.429 61.93 60.952 61.93 18.598 0 35.32-8.577 46.524-22.030l721.476 231.020zM855.882 722.796l-707.048-226.4v-107.184l707.048-226.4v559.984zM375.447 119.379l151.257-49.439c24.607-8.108 51.293 5.718 59.273 30.739 7.961 25.022-5.647 52.116-30.274 60.224l-151.257 49.439c-24.627 8.108-51.293-5.738-59.273-30.759-7.961-25.002 5.647-52.096 30.274-60.204z" />
<glyph unicode="&#xe912;" glyph-name="digital-media-xl" d="M662.546 694.981v29.903c0 31.985 26.143 58.128 58.128 58.128s58.128-26.143 58.128-58.128v-552.611c0-31.985-26.143-58.128-58.128-58.128s-58.128 26.143-58.128 58.128v29.903l-229.964 72.473c7.764-11.731 10.336-26.759 5.694-41.12-8.103-25.007-35.169-38.817-60.168-30.71l-197.143 63.861c-25.004 8.102-38.816 35.147-30.728 60.149 4.288 13.234 13.881 23.335 25.668 28.713l-70.598 22.249v-6.923c0-27.236-22.258-49.494-49.494-49.494s-49.494 22.258-49.494 49.494v155.422c0 27.236 22.258 49.494 49.494 49.494s49.494-22.258 49.494-49.494v-6.923l557.238 175.614zM662.546 681.726l-557.238-175.614v-115.067l557.238-175.614v466.295zM382.007 214.845c18.359-5.954 38.293 4.218 44.242 22.577 5.94 18.375-4.232 38.296-22.597 44.247l-197.145 63.861c-18.366 5.951-38.289-4.226-44.242-22.596-5.939-18.359 4.234-38.278 22.597-44.228l197.144-63.861zM55.815 334.016c20.254 0 36.852 16.598 36.852 36.852v155.422c0 20.254-16.598 36.852-36.852 36.852s-36.852-16.598-36.852-36.852v-155.422c0-20.254 16.598-36.852 36.852-36.852zM720.675 126.787c25.003 0 45.486 20.483 45.486 45.486v552.611c0 25.003-20.483 45.486-45.486 45.486s-45.486-20.483-45.486-45.486v-552.611c0-25.003 20.483-45.486 45.486-45.486zM858.827 442.258h37.926c3.491 0 6.321 2.83 6.321 6.321s-2.83 6.321-6.321 6.321h-37.926c-3.491 0-6.321-2.83-6.321-6.321s2.83-6.321 6.321-6.321zM934.679 442.258h37.926c3.491 0 6.321 2.83 6.321 6.321s-2.83 6.321-6.321 6.321h-37.926c-3.491 0-6.321-2.83-6.321-6.321s2.83-6.321 6.321-6.321zM1010.531 442.258h3.718c3.491 0 6.321 2.83 6.321 6.321s-2.83 6.321-6.321 6.321h-3.718c-3.491 0-6.321-2.83-6.321-6.321s2.83-6.321 6.321-6.321zM863.297 645.052l26.818 26.818c2.468 2.468 2.468 6.471 0 8.939s-6.471 2.468-8.939 0l-26.818-26.818c-2.468-2.468-2.468-6.471 0-8.939s6.471-2.468 8.939 0zM916.932 698.688l26.818 26.818c2.468 2.468 2.468 6.471 0 8.939s-6.471 2.468-8.939 0l-26.818-26.818c-2.468-2.468-2.468-6.471 0-8.939s6.471-2.468 8.939 0zM970.568 752.323l2.63 2.63c2.468 2.468 2.468 6.471 0 8.939s-6.471 2.468-8.939 0l-2.63-2.63c-2.468-2.468-2.468-6.471 0-8.939s6.471-2.468 8.939 0zM860.826 539.911l35.98 11.993c3.312 1.104 5.102 4.684 3.998 7.995s-4.684 5.102-7.995 3.998l-35.98-11.993c-3.312-1.104-5.102-4.684-3.998-7.995s4.684-5.102 7.995-3.998zM932.786 563.897l35.98 11.993c3.312 1.104 5.102 4.684 3.998 7.995s-4.684 5.102-7.995 3.998l-35.98-11.993c-3.312-1.104-5.102-4.684-3.998-7.995s4.684-5.102 7.995-3.998zM1004.745 587.884l11.503 3.834c3.312 1.104 5.102 4.684 3.998 7.995s-4.684 5.102-7.995 3.998l-11.503-3.834c-3.312-1.104-5.102-4.684-3.998-7.995s4.684-5.102 7.995-3.998zM854.358 243.166l26.818-26.818c2.468-2.468 6.471-2.468 8.939 0s2.468 6.471 0 8.939l-26.818 26.818c-2.468 2.468-6.471 2.468-8.939 0s-2.468-6.471 0-8.939zM907.993 189.531l26.818-26.818c2.468-2.468 6.471-2.468 8.939 0s2.468 6.471 0 8.939l-26.818 26.818c-2.468 2.468-6.471 2.468-8.939 0s-2.468-6.471 0-8.939zM961.628 135.895l2.63-2.63c2.468-2.468 6.471-2.468 8.939 0s2.468 6.471 0 8.939l-2.63 2.63c-2.468 2.468-6.471 2.468-8.939 0s-2.468-6.471 0-8.939zM856.828 345.253l35.98-11.993c3.312-1.104 6.892 0.686 7.995 3.998s-0.686 6.892-3.998 7.995l-35.98 11.993c-3.312 1.104-6.892-0.686-7.995-3.998s0.686-6.892 3.998-7.995zM928.788 321.267l35.98-11.993c3.312-1.104 6.892 0.686 7.995 3.998s-0.686 6.892-3.998 7.995l-35.98 11.993c-3.312 1.104-6.892-0.686-7.995-3.998s0.686-6.892 3.998-7.995zM1000.747 297.281l11.503-3.834c3.312-1.104 6.892 0.686 7.995 3.998s-0.686 6.892-3.998 7.995l-11.503 3.834c-3.312 1.104-6.892-0.686-7.995-3.998s0.686-6.892 3.998-7.995z" />
<glyph unicode="&#xe913;" glyph-name="done" d="M132.468 614.248l-131.65-131.65 394.978-394.978 595.741 595.741-131.65 131.65-464.090-464.090z" />
<glyph unicode="&#xe914;" glyph-name="scroll-down" d="M465.71 139.829v820.171h109.763v-804.821l372.746 372.746 77.614-77.614-512.847-512.847-512.987 512.847 77.614 77.614z" />
<glyph unicode="&#xe915;" glyph-name="download" d="M512-51.81c-276.037 0-499.81 223.772-499.81 499.81s223.772 499.81 499.81 499.81c276.037 0 499.81-223.772 499.81-499.81s-223.772-499.81-499.81-499.81zM512-27.429c262.572 0 475.429 212.857 475.429 475.429s-212.857 475.429-475.429 475.429c-262.572 0-475.429-212.857-475.429-475.429s212.857-475.429 475.429-475.429zM585.143 713.138c-6.73 2.008-13.769 3.053-20.911 3.053h-224.753c-13.465 0-24.381-10.916-24.381-24.381v-463.238c0-13.465 10.916-24.381 24.381-24.381h367.569c13.465 0 24.381 10.916 24.381 24.381v326.459c0 5.038-0.52 10.019-1.528 14.874h-95.996c-26.93 0-48.762 21.283-48.762 47.537v95.696zM609.524 700.48v-83.039c0-13.127 10.916-23.769 24.381-23.769h86.483c-3.348 5.381-7.411 10.352-12.125 14.763l-94.054 88.017c-1.51 1.413-3.073 2.756-4.685 4.027zM339.479 740.571h224.753c24.747 0 48.568-9.408 66.637-26.317l94.054-88.017c19.705-18.44 30.887-44.22 30.887-71.207v-326.459c0-26.93-21.831-48.762-48.762-48.762h-367.569c-26.93 0-48.762 21.831-48.762 48.762v463.238c0 26.93 21.831 48.762 48.762 48.762zM531.465 513.869v-178.902l71.961 65.773c11.998 10.966 28.446-7.031 16.449-17.996l-92.162-84.237c-3.842-3.511-8.14-4.053-11.814-2.807-3.559-0.585-7.341 0.408-10.209 3.030l-92.162 84.237c-4.97 4.542-5.316 12.253-0.774 17.223s12.253 5.316 17.223 0.774l77.109-70.478v183.384c0 6.733 5.458 12.19 12.19 12.19s12.19-5.458 12.19-12.19z" />
<glyph unicode="&#xe916;" glyph-name="edit" d="M751.716 907.065c31.558 31.558 63.115 0 63.115 0l157.222-157.222c0 0 31.558-31.558 0-63.115l-661.056-661.020-267.541-47.275 47.17 267.646 661.091 660.985zM657.423 749.657l-503.706-503.706 157.408-157.408 503.706 503.706-157.408 157.408zM129.032 207.673l-30.798-174.462 174.356 30.904-143.558 143.558zM783.274 875.507l-94.369-94.369 157.408-157.408 94.369 94.369-157.408 157.408z" />
<glyph unicode="&#xe917;" glyph-name="figura-1" d="M876.007 456.477l-751.269 436.548v-873.096l751.269 436.548zM934.022 436.355l-820.863-476.988c-15.515-9.016-34.965 2.178-34.965 20.122v953.976c0 17.944 19.45 29.138 34.965 20.122l820.863-476.988c15.44-8.972 15.44-31.272 0-40.244z" />
<glyph unicode="&#xe918;" glyph-name="figura-2" d="M69.159 671.587c-10.122 17.533 2.567 39.441 22.812 39.385l256.762-0.717 135.695 236.554c10.073 17.561 35.392 17.596 45.514 0.064l137.124-237.507 231.538-0.647c20.147-0.056 32.727-21.845 22.702-39.321l-115.209-200.842 129.112-223.629c10.122-17.533-2.567-39.441-22.812-39.385l-256.762 0.717-135.695-236.554c-10.073-17.561-35.392-17.596-45.514-0.064l-137.124 237.507-231.538 0.647c-20.147 0.056-32.727 21.845-22.702 39.321l115.209 200.842-129.112 223.629zM251.304 461.129c4.677-8.101 4.691-18.079 0.037-26.193l-100.244-174.754 201.463-0.563c9.354-0.026 17.988-5.027 22.665-13.128l121.867-211.080 120.584 210.212c4.694 8.182 13.416 13.218 22.849 13.192l226.394-0.632-113.855 197.203c-4.677 8.101-4.691 18.079-0.037 26.193l100.244 174.754-201.463 0.563c-9.354 0.026-17.988 5.027-22.665 13.128l-121.867 211.080-120.584-210.212c-4.694-8.182-13.416-13.218-22.849-13.192l-226.394 0.632 113.855-197.203z" />
<glyph unicode="&#xe919;" glyph-name="figura-3" d="M58.514 901.486v-905.501h905.501v905.501h-905.501zM29.257 960h964.015c16.158 0 29.257-13.099 29.257-29.257v-964.015c0-16.158-13.099-29.257-29.257-29.257h-964.015c-16.158 0-29.257 13.099-29.257 29.257v964.015c0 16.158 13.099 29.257 29.257 29.257z" />
<glyph unicode="&#xe91a;" glyph-name="figura-4" d="M512-64c-282.77 0-512 229.23-512 512s229.23 512 512 512c282.77 0 512-229.23 512-512s-229.23-512-512-512zM512-12.8c254.493 0 460.8 206.307 460.8 460.8s-206.307 460.8-460.8 460.8c-254.493 0-460.8-206.307-460.8-460.8s206.307-460.8 460.8-460.8z" />
<glyph unicode="&#xe91b;" glyph-name="figura-5" d="M933.469 458.236l-323.823 445.704-523.956-170.244v-550.92l523.956-170.244 323.823 445.704zM984.546 443.555l-345.154-475.064c-6.36-8.754-17.633-12.417-27.924-9.073l-558.472 181.458c-10.291 3.344-17.258 12.933-17.258 23.753v587.212c0 10.82 6.967 20.41 17.258 23.753l558.472 181.458c10.291 3.344 21.564-0.319 27.924-9.073l345.154-475.064c6.36-8.754 6.36-20.607 0-29.361z" />
<glyph unicode="&#xe91c;" glyph-name="figura-6" d="M281.301 904.649l-225.95-225.95v-461.397l225.95-225.95h461.397l225.95 225.95v461.397l-225.95 225.95h-461.397zM269.838 960h484.324c7.34 0 14.379-2.916 19.57-8.106l242.162-242.162c5.19-5.19 8.106-12.23 8.106-19.57v-484.324c0-7.34-2.916-14.379-8.106-19.57l-242.162-242.162c-5.19-5.19-12.23-8.106-19.57-8.106h-484.324c-7.34 0-14.379 2.916-19.57 8.106l-242.162 242.162c-5.19 5.19-8.106 12.23-8.106 19.57v484.324c0 7.34 2.916 14.379 8.106 19.57l242.162 242.162c5.19 5.19 12.23 8.106 19.57 8.106z" />
<glyph unicode="&#xe91d;" glyph-name="figura-7" d="M60.838 684.185l102.71-224.679c3.34-7.307 3.34-15.706 0-23.013l-102.71-224.679 214.976-214.976 224.679 102.71c7.307 3.34 15.706 3.34 23.013 0l224.679-102.71 214.976 214.976-102.71 224.679c-3.34 7.307-3.34 15.706 0 23.013l102.71 224.679-214.976 214.976-224.679-102.71c-7.307-3.34-15.706-3.34-23.013 0l-224.679 102.71-214.976-214.976zM107.948 448l-105.443 230.656c-4.805 10.512-2.572 22.903 5.601 31.076l242.162 242.162c8.173 8.173 20.564 10.406 31.076 5.601l230.656-105.443 230.656 105.443c10.512 4.805 22.903 2.572 31.076-5.601l242.162-242.162c8.173-8.173 10.406-20.564 5.601-31.076l-105.443-230.656 105.443-230.656c4.805-10.512 2.572-22.903-5.601-31.076l-242.162-242.162c-8.173-8.173-20.564-10.406-31.076-5.601l-230.656 105.443-230.656-105.443c-10.512-4.805-22.903-2.572-31.076 5.601l-242.162 242.162c-8.173 8.173-10.406 20.564-5.601 31.076l105.443 230.656z" />
<glyph unicode="&#xe91e;" glyph-name="figura-8" d="M512 902.653l-454.653-454.653 454.653-454.653 454.653 454.653-454.653 454.653zM528.839 953.17l488.331-488.331c9.3-9.3 9.3-24.378 0-33.678l-488.331-488.331c-9.3-9.3-24.378-9.3-33.678 0l-488.331 488.331c-9.3 9.3-9.3 24.378 0 33.678l488.331 488.331c9.3 9.3 24.378 9.3 33.678 0z" />
<glyph unicode="&#xe91f;" glyph-name="figura-9" d="M203.539 457.232c1.681-5.54 1.681-11.454 0-16.993l-130.385-429.614 429.614 130.385c5.54 1.681 11.454 1.681 16.993 0l429.614-130.385-130.385 429.614c-1.681 5.54-1.681 11.454 0 16.993l130.385 429.614-429.614-130.385c-5.54-1.681-11.454-1.681-16.993 0l-429.614 130.385 130.385-429.614zM1.261 922.246c-6.791 22.377 14.116 43.284 36.493 36.493l473.511-143.707 473.511 143.707c22.377 6.791 43.284-14.116 36.493-36.493l-143.707-473.511 143.707-473.511c6.791-22.377-14.116-43.284-36.493-36.493l-473.511 143.707-473.511-143.707c-22.377-6.791-43.284 14.116-36.493 36.493l143.707 473.511-143.707 473.511z" />
<glyph unicode="&#xe920;" glyph-name="figura-10" d="M630.756 729.841c-12.412-1.73-24.493 4.866-29.749 16.242-43.866 94.946-139.018 157.029-245.451 157.029-149.24 0-270.222-120.983-270.222-270.222 0-61.585 20.628-119.947 57.975-167.266 8.156-10.333 8.156-24.912 0-35.245-37.348-47.32-57.975-105.681-57.975-167.266 0-149.24 120.983-270.222 270.222-270.222 115.985 0 217.916 73.747 255.346 181.552 4.324 12.455 16.641 20.306 29.758 18.968 9.184-0.937 18.453-1.409 27.785-1.409 149.24 0 270.222 120.983 270.222 270.222s-120.983 270.222-270.222 270.222c-12.7 0-25.282-0.874-37.689-2.604zM668.444 789.333c180.658 0 327.111-146.453 327.111-327.111s-146.453-327.111-327.111-327.111c-3.903 0-7.798 0.068-11.684 0.205-50.604-119.296-168.275-199.316-301.205-199.316-180.658 0-327.111 146.453-327.111 327.111 0 67.022 20.243 131.016 57.227 184.889-36.983 53.873-57.227 117.867-57.227 184.889 0 180.658 146.453 327.111 327.111 327.111 121.791 0 231.399-67.179 287.859-171.611 8.298 0.629 16.646 0.945 25.030 0.945z" />
<glyph unicode="&#xe921;" glyph-name="close-m" d="M417.901 465.88l-417.901-417.901 76.219-76.219 417.901 417.901 417.901-417.901 76.219 76.219-417.901 417.901 417.901 417.901-76.219 76.219-417.901-417.901-417.901 417.901-76.219-76.219z" />
<glyph unicode="&#xe922;" glyph-name="isv-m" d="M317.184 140.8h553.216c28.277 0 51.2 22.923 51.2 51.2v512c0 28.277-22.923 51.2-51.2 51.2h-716.8c-28.277 0-51.2-22.923-51.2-51.2v-512c0-28.277 22.923-51.2 51.2-51.2h112.384v409.6h-163.584v51.2h819.2v-51.2h-604.416v-409.6zM153.6 857.6h716.8c84.831 0 153.6-68.769 153.6-153.6v-512c0-84.831-68.769-153.6-153.6-153.6h-716.8c-84.831 0-153.6 68.769-153.6 153.6v512c0 84.831 68.769 153.6 153.6 153.6zM409.6 345.6h358.4v-51.2h-358.4v51.2zM409.6 448h358.4v-51.2h-358.4v51.2z" />
<glyph unicode="&#xe923;" glyph-name="isv-xl" d="M107.281 647.166v-396.684h807.791v396.684h-807.791zM100.070 661.588h822.213c3.983 0 7.211-3.229 7.211-7.211v-411.107c0-3.983-3.229-7.211-7.211-7.211h-822.213c-3.983 0-7.211 3.229-7.211 7.211v411.107c0 3.983 3.229 7.211 7.211 7.211zM21.634 938.366v-979.085h979.085v979.085h-979.085zM14.423 952.789h993.507c3.983 0 7.211-3.229 7.211-7.211v-993.507c0-3.983-3.229-7.211-7.211-7.211h-993.507c-3.983 0-7.211 3.229-7.211 7.211v993.507c0 3.983 3.229 7.211 7.211 7.211zM398.481 318.999h225.39v54.095h-225.39v-54.095zM391.27 387.517h239.812c3.983 0 7.211-3.229 7.211-7.211v-68.518c0-3.983-3.229-7.211-7.211-7.211h-239.812c-3.983 0-7.211 3.229-7.211 7.211v68.518c0 3.983 3.229 7.211 7.211 7.211zM384.059 114.8c0 19.673-15.939 35.612-35.612 35.612s-35.612-15.939-35.612-35.612c0-19.673 15.939-35.612 35.612-35.612s35.612 15.939 35.612 35.612zM398.481 114.8c0-27.638-22.396-50.035-50.035-50.035s-50.035 22.396-50.035 50.035c0 27.638 22.396 50.035 50.035 50.035s50.035-22.396 50.035-50.035zM538.224 114.8c0 19.673-15.939 35.612-35.612 35.612s-35.612-15.939-35.612-35.612c0-19.673 15.939-35.612 35.612-35.612s35.612 15.939 35.612 35.612zM552.646 114.8c0-27.638-22.396-50.035-50.035-50.035s-50.035 22.396-50.035 50.035c0 27.638 22.396 50.035 50.035 50.035s50.035-22.396 50.035-50.035zM692.389 114.8c0 19.673-15.939 35.612-35.612 35.612s-35.612-15.939-35.612-35.612c0-19.673 15.939-35.612 35.612-35.612s35.612 15.939 35.612 35.612zM706.811 114.8c0-27.638-22.396-50.035-50.035-50.035s-50.035 22.396-50.035 50.035c0 27.638 22.396 50.035 50.035 50.035s50.035-22.396 50.035-50.035zM161.376 842.801c0 24.401-19.776 44.177-44.177 44.177s-44.177-19.776-44.177-44.177c0-24.401 19.776-44.177 44.177-44.177s44.177 19.776 44.177 44.177zM175.799 842.801c0-32.366-26.233-58.6-58.6-58.6s-58.6 26.233-58.6 58.6c0 32.366 26.233 58.6 58.6 58.6s58.6-26.233 58.6-58.6zM315.541 842.801c0 24.401-19.776 44.177-44.177 44.177s-44.177-19.776-44.177-44.177c0-24.401 19.776-44.177 44.177-44.177s44.177 19.776 44.177 44.177zM329.964 842.801c0-32.366-26.233-58.6-58.6-58.6s-58.6 26.233-58.6 58.6c0 32.366 26.233 58.6 58.6 58.6s58.6-26.233 58.6-58.6zM469.706 842.801c0 24.401-19.776 44.177-44.177 44.177s-44.177-19.776-44.177-44.177c0-24.401 19.776-44.177 44.177-44.177s44.177 19.776 44.177 44.177zM484.129 842.801c0-32.366-26.233-58.6-58.6-58.6s-58.6 26.233-58.6 58.6c0 32.366 26.233 58.6 58.6 58.6s58.6-26.233 58.6-58.6zM21.634 938.366v-191.131h979.085v191.131h-979.085zM14.423 952.789h993.507c3.983 0 7.211-3.229 7.211-7.211v-205.553c0-3.983-3.229-7.211-7.211-7.211h-993.507c-3.983 0-7.211 3.229-7.211 7.211v205.553c0 3.983 3.229 7.211 7.211 7.211zM708.165 507.423v-14.423h-393.977v14.423h393.977zM639.647 575.941v-14.423h-256.942v14.423h256.942z" />
<glyph unicode="&#xe924;" glyph-name="left-m" d="M235.659 446.259c-0.58 9.863 2.901 20.307 12.184 29.59l472.615 472.615c37.132 37.132 92.83-18.566 55.698-55.698l-444.766-444.766 444.766-444.766c37.132-37.132-18.566-92.83-55.698-55.698l-472.615 472.615c-9.283 9.283-12.764 19.726-12.184 29.59v-3.481z" />
<glyph unicode="&#xe925;" glyph-name="left-xl" d="M768.029-10.051c10.055-9.94 10.148-26.148 0.208-36.203s-26.148-10.148-36.203-0.208l-485.498 479.938c-10.096 9.98-10.143 26.27-0.105 36.308l482.718 482.718c9.997 9.997 26.206 9.997 36.204 0s9.997-26.206 0-36.204l-464.512-464.512 467.187-461.837z" />
<glyph unicode="&#xe926;" glyph-name="like" d="M839.769 25.756h-410.891c-37.087 0-112.195 48.707-112.195 88.509v362.674c0 8.103 4.363 15.583 11.398 19.501 81.965 45.768 123.414 127.065 166.689 251.859v119.585c0 4.051 1.069 8.014 3.161 11.487 13.535 22.528 36.953 35.439 64.245 35.439 35.128 0 72.081-21.237 98.883-56.587 27.025-35.84 65.581-114.955 33.747-253.596h187.57c41.761 0 136.459-43.008 136.459-113.709 0-23.285-2.76-58.813-17.586-79.605 11.665-32.634 13.891-85.571-21.949-122.88 2.938-62.865-12.867-108.544-46.214-133.565-0.579-33.213-15.85-73.817-38.912-100.263-16.25-18.877-35.128-28.85-54.406-28.85zM361.294 464.295v-349.941c3.651-11.932 48.796-43.987 67.673-43.987h410.847c5.877 0 13.579 5.031 21.148 13.713 17.987 20.703 30.631 57.166 27.514 79.738-1.291 9.216 3.25 18.12 11.487 22.706 36.152 19.501 37.131 76.978 34.593 109.568-0.668 7.123 2.404 14.113 7.925 18.877 32.323 26.891 22.35 76.221 13.089 90.335-3.962 6.099-4.675 13.802-2.048 20.435 2.76 6.678 8.459 11.798 15.627 13.401-0.935 1.202 5.476 19.367 5.476 52.001 0 36.196-66.159 69.187-91.893 69.187h-216.287c-6.99 0-13.535 3.206-17.675 8.771s-5.565 12.778-3.651 19.501c28.494 100.753 21.415 189.262-19.144 243-21.638 28.761-47.015 38.912-63.399 38.912-9.75 0-17.453-3.161-22.973-9.483v-116.068c0-2.582-0.445-4.853-1.202-7.257-44.388-128.356-89.934-219.403-177.107-273.408zM278.083-41.739h-199.992c-43.053 0-78.091 35.036-78.091 78.086v467.178c0 43.049 35.039 78.041 78.091 78.041h199.992c43.053 0 78.091-34.992 78.091-78.041v-467.178c0-43.049-35.039-78.086-78.091-78.086zM78.091 537.047c-18.521 0-33.569-15.047-33.569-33.522v-467.178c0-18.52 15.048-33.567 33.569-33.567h199.992c18.521 0 33.569 15.047 33.569 33.567v467.178c0 18.475-15.048 33.522-33.569 33.522h-199.992zM178.087 91.842c-24.589 0-44.522 19.932-44.522 44.519s19.933 44.519 44.522 44.519c24.589 0 44.522-19.932 44.522-44.519s-19.933-44.519-44.522-44.519z" />
<glyph unicode="&#xe927;" glyph-name="logout" d="M903.475 491.649v0h-452.583c-29.681 0-29.681 44.522 0 44.522h452.583l-171.512 171.512c-20.988 20.988 10.494 52.469 31.482 31.482l206.564-206.564c3.766-2.489 6.409-6.077 7.929-10.108 1.081-2.39 1.752-4.957 1.907-9.566-0.155-2.641-0.826-5.209-1.907-7.599-1.519-4.031-4.162-7.619-7.929-10.108l-206.564-206.564c-20.988-20.988-52.469 10.494-31.482 31.482l171.512 171.512zM450.892 134.602h187.253v274.551c0 12.294 9.967 22.261 22.261 22.261s22.261-9.967 22.261-22.261v-296.812c0-12.294-9.967-22.261-22.261-22.261h-209.514c-12.294 0-22.261 9.967-22.261 22.261s9.967 22.261 22.261 22.261zM89.043 893.217v-780.876c0-12.294-9.967-22.261-22.261-22.261s-22.261 9.967-22.261 22.261v803.137c0 12.294 9.967 22.261 22.261 22.261h593.623c12.294 0 22.261-9.967 22.261-22.261v-296.812c0-12.294-9.967-22.261-22.261-22.261s-22.261 9.967-22.261 22.261v274.551h-549.101zM457.641 814.475c9.238-2.939 15.511-11.519 15.511-21.213v-803.137c0-15.066-14.653-25.781-29.010-21.213l-384.109 122.217c-9.238 2.939-15.511 11.519-15.511 21.213v803.137c0 15.066 14.653 25.781 29.010 21.213l384.109-122.217zM89.043 885.035v-756.416l339.587-108.051v756.416l-339.587 108.051z" />
<glyph unicode="&#xe928;" glyph-name="love" d="M512-4.565c-3.691 0-7.381 0.96-10.688 2.88-5.099 2.944-126.144 73.536-249.131 187.264-167.339 154.731-252.181 307.627-252.181 454.421 0 197.867 133.952 288 258.411 288 95.979 0 203.307-54.869 253.589-175.552 50.283 120.683 157.632 175.552 253.589 175.552 124.459 0 258.411-90.133 258.411-288 0-146.795-84.843-299.691-252.181-454.421-122.987-113.728-244.032-184.341-249.131-187.264-3.307-1.92-6.997-2.88-10.688-2.88z" />
<glyph unicode="&#xe929;" glyph-name="mark-resolved" d="M841.249 651.284c35.065-59.168 55.29-128.756 55.29-203.284 0-215.748-169.482-390.095-377.848-390.095v-97.524c262.854 0 475.372 218.619 475.372 487.619s-212.518 487.619-475.372 487.619c-76.67 0-150.822-18.673-217.531-53.942-157.129-83.075-257.841-249.295-257.841-433.677 0-84.729 21.132-166.433 60.792-238.755 45.504-82.98 113.942-150.835 196.469-194.615l45.703 86.152c-65.63 34.817-120.268 88.988-156.661 155.354-31.815 58.017-48.779 123.605-48.779 191.864 0 148.144 80.64 281.236 205.9 347.462 52.765 27.897 111.286 42.633 171.948 42.633 101.441 0 193.666-41.323 261.605-108.627l-314.18-352.474-125.765 129.376-69.929-67.977 198.788-204.494 372.040 417.386z" />
<glyph unicode="&#xe92a;" glyph-name="mega-quiz" d="M215.987 30.193c83.576-59.32 185.722-94.193 296.013-94.193 282.77 0 512 229.23 512 512s-229.23 512-512 512c-282.77 0-512-229.23-512-512 0-111.155 35.421-214.037 95.592-297.974l-74.259-203.952 194.654 84.12z" />
<glyph unicode="&#xe92b;" glyph-name="my-presentations-xl" d="M12.962 869.266v-644.079h831.804v644.079h-831.804zM857.729 882.228v-670.003h-857.729v670.003h857.729zM84.253 134.453h838.285v650.56c0 3.579 2.902 6.481 6.481 6.481s6.481-2.902 6.481-6.481v-663.522h-851.247c-3.579 0-6.481 2.902-6.481 6.481s2.902 6.481 6.481 6.481zM1000.311 30.757v650.56c0 3.579 2.902 6.481 6.481 6.481s6.481-2.902 6.481-6.481v-663.522h-851.247c-3.579 0-6.481 2.902-6.481 6.481s2.902 6.481 6.481 6.481h838.285zM163.143 528.11v-27.815c0-3.579 2.902-6.481 6.481-6.481s6.481 2.902 6.481 6.481v27.815c0 3.579-2.902 6.481-6.481 6.481s-6.481-2.902-6.481-6.481zM632.234 755.736h125.151c3.579 0 6.481 2.902 6.481 6.481s-2.902 6.481-6.481 6.481h-125.151c-3.579 0-6.481-2.902-6.481-6.481s2.902-6.481 6.481-6.481zM522.727 652.040h234.657c3.579 0 6.481 2.902 6.481 6.481s-2.902 6.481-6.481 6.481h-234.657c-3.579 0-6.481-2.902-6.481-6.481s2.902-6.481 6.481-6.481zM569.659 561.306h187.726c3.579 0 6.481 2.902 6.481 6.481s-2.902 6.481-6.481 6.481h-187.726c-3.579 0-6.481-2.902-6.481-6.481s2.902-6.481 6.481-6.481zM679.165 470.572h78.219c3.579 0 6.481 2.902 6.481 6.481s-2.902 6.481-6.481 6.481h-78.219c-3.579 0-6.481-2.902-6.481-6.481s2.902-6.481 6.481-6.481zM632.234 353.914h125.151c3.579 0 6.481 2.902 6.481 6.481s-2.902 6.481-6.481 6.481h-125.151c-3.579 0-6.481-2.902-6.481-6.481s2.902-6.481 6.481-6.481zM115.988 327.99h125.151c3.579 0 6.481 2.902 6.481 6.481s-2.902 6.481-6.481 6.481h-125.151c-3.579 0-6.481-2.902-6.481-6.481s2.902-6.481 6.481-6.481zM272.426 405.762h46.931c3.579 0 6.481 2.902 6.481 6.481s-2.902 6.481-6.481 6.481h-46.931c-3.579 0-6.481-2.902-6.481-6.481s2.902-6.481 6.481-6.481zM115.988 405.762h31.288c3.579 0 6.481 2.902 6.481 6.481s-2.902 6.481-6.481 6.481h-31.288c-3.579 0-6.481-2.902-6.481-6.481s2.902-6.481 6.481-6.481zM225.495 406.432c0 8.635-7.008 15.644-15.644 15.644s-15.644-7.008-15.644-15.644c0-8.635 7.008-15.644 15.644-15.644s15.644 7.008 15.644 15.644zM335.001 328.213c0 8.635-7.008 15.644-15.644 15.644s-15.644-7.008-15.644-15.644c0-8.635 7.008-15.644 15.644-15.644s15.644 7.008 15.644 15.644zM266.627 783.895c-20.65 0-39.871-12.687-51.859-31.223-11.989 18.536-31.209 31.223-51.859 31.223-34.018 0-60.457-27.125-63.756-62.303 0.016 0.26-0.080-0.368-0.167-1.204-0.576-5.582-0.088-13.075 2.19-22.28 4.861-19.593 16.247-37.453 32.285-51.27l76.014-65.061c3.063-2.603 7.525-2.603 10.571-0.014l76.015 65.061c16.063 13.839 27.442 31.685 32.3 51.281 2.278 9.198 2.767 16.691 2.191 22.28-0.086 0.836-0.182 1.465-0.266 1.88-3.182 34.487-29.638 61.63-63.657 61.63zM287.614 656.657l-72.847-62.35-72.863 62.364c-14.041 12.097-23.953 27.645-28.148 44.554-1.912 7.728-2.302 13.718-1.878 17.832 0.043 0.419 0.077 0.636 0.079 0.649 2.803 29.501 23.979 51.227 50.95 51.227 18.837 0 37.071-14.486 45.935-34.474l5.925-13.359 5.925 13.359c8.864 19.988 27.098 34.474 45.935 34.474 26.971 0 48.162-21.741 50.85-50.548 0.102-0.69 0.135-0.909 0.179-1.329 0.425-4.121 0.035-10.111-1.878-17.833-4.193-16.913-14.098-32.448-28.163-44.565z" />
<glyph unicode="&#xe92c;" glyph-name="notification-settings" d="M828.952 321.707c7.228 17.609 22.153 30.915 40.472 36.084 47.122 11.248 93.268 26.25 137.996 44.861v110.69l-138.484 40.472c-18.135 5.299-32.859 18.586-39.985 36.084v0c-7.243 17.607-5.984 37.568 3.413 54.126 25.741 41.696 48.081 85.398 66.804 130.682l-78.507 78.019c-44.058-19.056-86.463-41.727-126.781-67.779-16.738-9.874-37.139-11.318-55.101-3.901v0c-16.986 6.934-30.023 21.042-35.596 38.522l-45.836 140.434h-110.69l-40.472-138.971c-5.194-18.033-18.285-32.738-35.596-39.985v0c-17.533-7.392-37.491-6.313-54.126 2.926-41.855 25.482-85.725 47.499-131.17 65.829l-78.507-78.507c19.030-43.915 41.702-86.16 67.779-126.293 9.874-16.738 11.318-37.139 3.901-55.101v0c-7.228-17.609-22.153-30.915-40.472-36.084-47.088-11.369-93.225-26.367-137.996-44.861v-110.69c44.596-17.638 90.594-31.502 137.509-41.448 18.591-4.81 33.899-17.973 41.441-35.633s6.463-37.821-2.919-54.576c-25.305-41.276-47.316-84.483-65.829-129.219l78.507-79.482c44.015 19.145 86.413 41.811 126.781 67.779 16.375 10.196 36.567 12.179 54.613 5.364v0c17.609-7.228 30.915-22.153 36.084-40.472 11.216-47.131 26.218-93.28 44.861-137.996h110.69c17.553 44.459 31.415 90.287 41.448 137.021 4.871 18.976 18.434 34.529 36.571 41.935v0c17.607 7.243 37.568 5.984 54.126-3.413 41.227-25.392 84.441-47.406 129.219-65.829l78.507 78.507c-19.022 43.919-41.694 86.165-67.779 126.293-9.878 16.327-11.677 36.296-4.876 54.126v0.488zM502.735 212.968c-134.652 0-243.81 109.157-243.81 243.81s109.157 243.81 243.81 243.81c134.652 0 243.81-109.157 243.81-243.81 0.272-134.084-107.779-243.225-241.859-244.297l-1.95 0.488z" />
<glyph unicode="&#xe92d;" glyph-name="person-1-m" d="M511.951 39.245c11.528-0.002 11.528-0.002 22.944-0.007 161.503-0.079 223.16 1.823 281.629 11.543 62.477 10.386 85.629 25.975 85.629 46.995 0 88.638-192.706 214.611-390.202 214.611s-390.202-125.973-390.202-214.611c0-21.020 23.152-36.609 85.629-46.995 58.469-9.72 120.126-11.621 281.629-11.543 11.416 0.006 11.416 0.006 22.944 0.007zM511.951-38.795c-11.497-0.002-11.497-0.002-22.906-0.007-166.647-0.081-229.926 1.871-294.464 12.599-95.641 15.899-150.872 53.087-150.872 123.979 0 140.428 232.863 292.651 468.242 292.651s468.242-152.224 468.242-292.651c0-70.892-55.231-108.080-150.872-123.979-64.538-10.729-127.818-12.68-294.464-12.599-11.409 0.006-11.409 0.006-22.906 0.007zM567.856 257.158l37.235-111.704-93.091-93.091-93.091 93.091 37.235 111.704c-20.237 15.201-34.077 38.459-36.759 65.010-126.646 34.655-219.595 157.321-219.595 302.38 0 171.783 130.352 312.162 292.651 312.162s292.651-140.379 292.651-312.162c0-129.519-74.102-241.187-180.128-288.293 0.084-1.438 0.127-2.976 0.127-4.619 0-30.455-14.625-57.494-37.235-74.478v0zM492.441 390.427c117.854 0 214.611 104.2 214.611 234.121s-96.757 234.121-214.611 234.121c-117.854 0-214.611-104.2-214.611-234.121s96.757-234.121 214.611-234.121z" />
<glyph unicode="&#xe92e;" glyph-name="person-1-xl" d="M434.788-40.025l32.934 221.508h-16.117v51.392l-82.448-54.96-70.059 175.165c-100.521-7.684-182.343-85.862-193.905-186.567 37.686-54.375 85.318-99.993 139.75-134.835v105.058h13.838v-113.596c53.537-31.824 113.146-53.481 176.007-63.165v0zM586.090-39.948c62.678 9.722 122.112 31.348 175.507 63.088v113.596h13.838v-105.058c54.432 34.842 102.064 80.46 139.75 134.835-11.563 100.705-93.384 178.883-193.905 186.567l-70.059-175.165-82.448 54.96v-51.392h-16.099l33.417-221.431zM404.408 353.701l47.196-56.635v1.586h117.169v-1.586l47.196 56.635h-13.386c-16.806 0-30.427 13.62-30.427 30.427v11.108c0 12.821 8.203 24.056 20.413 28.64 88.697 33.361 159.017 179.378 151.299 296.793-36.015 47.814-91.698 85.33-152.377 103.334-20.592-44.707-65.416-74.201-115.747-74.201-17.997 0-35.474 3.735-51.575 10.874-47.483 21.035-101.225 10.667-132.844-26.941-1.062-1.254-2.139-2.568-3.54-4.309l-5.44-6.761-5.12 6.48c-0.81-7.92-1.224-15.957-1.224-24.091 0-111.876 70.911-251.267 152.97-281.613 11.644-4.297 19.248-15.771 19.248-28.38v-10.936c0-16.806-13.62-30.427-30.427-30.427h-13.386zM303.741 367.242c3.86 0.197 7.745 0.297 11.652 0.297h102.401c9.164 0 16.589 7.425 16.589 16.589v10.936c0 6.939-4.119 13.153-10.206 15.4-88.335 32.666-162.013 177.496-162.013 294.593 0 137.178 111.366 248.308 248.558 248.007 9.991-0.071 19.039-0.584 28.031-1.576 112.671-12.604 204.115-103.267 217.619-215.797 15.016-125.226-60.186-287.627-158.935-324.768-6.94-2.606-11.443-8.774-11.443-15.687v-11.108c0-9.164 7.425-16.589 16.589-16.589h102.401c3.907 0 7.791-0.1 11.652-0.297l-89.136 0.297h86.87c0.791 0 1.55-0.104 2.266-0.297 110.591-5.653 201.227-91.32 212.587-201.83l-1.176-4.62c-93.843-136.894-248.792-220.415-417.86-220.415s-324.016 83.521-417.86 220.415l-1.176 4.62c11.36 110.51 101.997 196.176 212.588 201.83 0.716 0.193 1.474 0.297 2.266 0.297h86.87l11.532-13.838-100.667 13.541zM280.060 748.686l0.445-0.633c0.821-1.168 1.547-2.195 2.205-3.12 35.926 40.606 95.087 51.422 147.067 28.395 14.344-6.361 29.911-9.688 45.968-9.688 46.754 0 88.181 28.556 105.386 71.27l2.304 5.721 5.947-1.634c58.347-16.036 112.689-49.378 151.468-92.862-17.596 100.505-101.412 180.166-203.624 191.599-8.5 0.937-17.069 1.423-25.677 1.474-115.385 0.267-211.004-81.865-231.489-190.523v0zM465.442 195.321h89.493v89.493h-89.493v-89.493zM633.982 353.701l-65.209-78.251v-25.945l75.933-50.617 61.919 154.813h-72.643zM375.672 198.888l75.933 50.617v25.945l-65.209 78.251h-72.642l61.919-154.813zM510.189-45.785c20.628 0 41.339 1.351 62.184 4l-33.694 223.268h-56.968l-33.204-223.327c20.706-2.608 41.258-3.941 61.682-3.941z" />
<glyph unicode="&#xe92f;" glyph-name="person-2-m" d="M490.54-61.958c-12.044-0.002-12.044-0.002-23.997-0.008-174.582-0.085-240.875 1.96-308.486 13.199-100.196 16.656-158.056 55.615-158.056 129.883 0 147.115 243.952 306.587 490.54 306.587s490.54-159.473 490.54-306.587c0-74.268-57.861-113.226-158.056-129.883-67.612-11.24-133.904-13.284-308.486-13.199-11.953 0.006-11.953 0.006-23.997 0.008zM470.1 305.947c-170.028 0-306.587 147.064-306.587 327.026s136.559 327.026 306.587 327.026c170.028 0 306.587-147.064 306.587-327.026s-136.559-327.026-306.587-327.026zM490.54 19.799c12.077-0.002 12.077-0.002 24.036-0.008 169.193-0.082 233.786 1.91 295.040 12.092 65.452 10.88 89.707 27.212 89.707 49.233 0 92.859-201.883 224.831-408.783 224.831s-408.783-131.972-408.783-224.831c0-22.021 24.255-38.352 89.707-49.233 61.253-10.183 125.847-12.175 295.040-12.092 11.96 0.006 11.96 0.006 24.036 0.008zM470.1 387.704c123.466 0 224.831 109.162 224.831 245.27s-101.365 245.27-224.831 245.27c-123.466 0-224.831-109.162-224.831-245.27s101.365-245.27 224.831-245.27z" />
<glyph unicode="&#xe930;" glyph-name="person-2-xl" d="M830.684 313.284l-320.629-286.245-320.632 286.248c-39.435-29.604-68.327-72.835-79.361-123.352 35.517-57.227 81.815-105.803 135.565-143.506v75.817h14.027v-85.3c77.951-50.757 170.294-79.296 267.562-79.296 83.202 0 162.941 20.866 233.24 58.92v105.676h14.027v-97.781c53.684 31.388 101.412 73.031 140.368 123.198-0.916 67.722-33.766 127.717-84.167 165.622zM818.878 321.548c-33.011 21.467-72.409 33.938-114.715 33.938h-102.039c-16.813 0-30.438 13.625-30.438 30.438v11.069c0 12.827 8.205 24.065 20.418 28.651 88.077 33.127 157.976 177.845 150.751 294.625l-2.096-1.538c-35.797 48.78-92.092 87.117-153.533 105.371-20.542-44.535-65.221-73.913-115.388-73.913-17.957 0-35.407 3.728-51.44 10.846-47.285 20.94-100.78 10.62-132.237-26.813-1.197-1.414-2.378-2.844-3.543-4.291l-5.529-6.871-1.488 1.894c-0.521-6.347-0.787-12.761-0.787-19.233 0-111.436 70.637-250.288 152.352-280.506 11.651-4.299 19.258-15.778 19.258-28.392v-10.897c0-16.813-13.625-30.438-30.438-30.438h-102.039c-42.038 0-81.528-12.401-114.709-33.943l308.817-275.7 308.823 275.705zM265.35 741.346c-0.418 0.592-0.592 0.838-1.266 1.789l1.722 1.223c16.774 106.378 101.726 191.214 210.851 206.105 12.164 1.202 24.97 1.912 39.33 2.229 9.563-0.226 15.893-0.553 22.546-1.294 112.328-12.565 203.493-102.951 216.955-215.139 14.969-124.834-59.993-286.715-158.45-323.747-6.87-2.579-11.326-8.682-11.326-15.52v-11.069c0-9.066 7.345-16.411 16.411-16.411h102.039c123.916 0 224.434-100.304 224.735-224.203l-1.453-4.292c-94.98-123.54-241.489-197.396-400.228-197.396-177.686 0-339.41 92.604-430.577 241.354l-0.891 5.072c21.254 103.792 112.949 179.465 220.199 179.465h102.039c9.066 0 16.411 7.345 16.411 16.411v10.897c0 6.865-4.074 13.013-10.092 15.233-88.077 32.571-161.518 176.936-161.518 293.664 0 12.085 0.873 23.981 2.562 35.627zM280.419 746.677c35.912 39.562 94.293 49.93 145.665 27.181 14.253-6.328 29.765-9.642 45.754-9.642 46.542 0 87.777 28.427 104.885 70.941l2.335 5.802 6.031-1.657c60.467-16.619 116.623-51.884 155.53-97.776-15.534 102.496-100.111 184.351-203.642 195.932-6.152 0.685-12.133 0.994-20.997 1.211-13.701-0.309-26.159-1-37.684-2.134-101.161-13.808-180.399-91.646-197.876-189.858zM503.041 87.924h14.027v-51.483h-14.027v51.483zM517.069 87.924v-51.483h-14.027v51.483h14.027zM592.108 425.645c82.16 30.893 151.237 166.413 150.982 280.058l-0.016 7.029h14.249v-363.942l-8.5 1.843c-14.782 3.205-29.699 4.852-44.66 4.852h-102.039c-16.813 0-30.438 13.625-30.438 30.438v11.069c0 12.827 8.205 24.065 20.422 28.652zM750.103 698.705h0.206v7.014h-0.206v-7.014zM597.041 412.514c-6.873-2.58-11.329-8.683-11.329-15.521v-11.069c0-9.066 7.345-16.411 16.411-16.411h102.039c13.106 0 26.169-1.182 39.132-3.492v243.396c-24.976-89.5-81.121-172.412-146.254-196.903zM315.947 355.486c-14.961 0-29.877-1.646-44.66-4.852l-8.5-1.843v356.928h14.027c0-111.436 70.637-250.288 152.352-280.506 11.651-4.299 19.258-15.778 19.258-28.392v-10.897c0-16.813-13.625-30.438-30.438-30.438h-102.039zM315.947 369.513h102.039c9.066 0 16.411 7.345 16.411 16.411v10.897c0 6.865-4.074 13.013-10.092 15.233-65.034 24.050-122.088 109.049-147.491 198.87v-244.903c12.963 2.31 26.026 3.492 39.132 3.492z" />
<glyph unicode="&#xe931;" glyph-name="person-all-m" d="M665.329 437.577c176.373-3.505 348.288-118.928 348.288-225.534 0-54.653-42.051-83.323-114.87-95.58-33.302-5.606-66.165-8.103-123.385-9.111l25.147 60.799c38.53 1.219 63.883 3.519 88.494 7.662 47.568 8.007 65.196 20.025 65.196 36.23 0 65.15-133.365 156.463-276.105 164.832l-12.766 60.702zM556.859 840.531c26.267 11.772 55.101 18.277 85.397 18.277 123.57 0 222.817-108.223 222.817-240.657 0-119.632-80.986-219.508-187.731-237.699l-12.395 58.94c79.131 12.188 140.708 87.186 140.708 178.759 0 100.161-73.668 180.493-163.399 180.493-11.652 0-23.032-1.354-34.016-3.931 42.373-49.034 68.18-114.518 68.18-186.22 0-91.904-42.398-173.593-107.735-223.52 153.882-40.231 279.424-143.315 279.424-240.040 0-62.385-48.603-95.11-132.767-109.101-56.794-9.441-112.48-11.159-259.129-11.087-10.040 0.005-10.040 0.005-20.157 0.006-10.117-0.002-10.117-0.002-20.157-0.006-146.649-0.071-202.335 1.646-259.129 11.087-84.165 13.991-132.767 46.717-132.767 109.101 0 91.505 112.357 188.701 254.773 232.988-70.802 49.062-117.422 134.201-117.422 230.572 0 151.169 114.71 274.702 257.533 274.702 50.859 0 98.154-15.665 137.973-42.664v0zM436.056 93.427c10.145-0.002 10.145-0.002 20.191-0.007 142.122-0.069 196.381 1.604 247.833 10.158 54.98 9.14 75.354 22.858 75.354 41.356 0 78.002-169.582 188.858-343.378 188.858s-343.378-110.856-343.378-188.858c0-18.498 20.374-32.216 75.354-41.356 51.453-8.553 105.711-10.227 247.833-10.158 10.046 0.005 10.046 0.005 20.191 0.007zM418.887 402.466c103.711 0 188.858 91.696 188.858 206.027s-85.146 206.027-188.858 206.027c-103.711 0-188.858-91.696-188.858-206.027s85.146-206.027 188.858-206.027z" />
<glyph unicode="&#xe932;" glyph-name="person-all-xl" d="M766.366 384.809h-97.15c-15.945 0-28.866 12.922-28.866 28.866v10.375c0 11.963 7.215 22.848 18.261 26.925 77.851 28.789 145.125 161.033 145.125 267.171 0 123.002-99.88 222.43-223.453 222.144-8.182-0.049-16.312-0.509-24.376-1.398-42.552-4.76-82.668-22.115-115.757-49.526-2.792-2.313-6.93-1.924-9.242 0.867s-1.924 6.93 0.867 9.242c35.036 29.023 77.548 47.415 122.683 52.464 8.532 0.941 17.115 1.427 25.771 1.478 130.853 0.302 236.635-105.002 236.635-235.273 0-111.092-69.899-248.495-153.704-279.486-5.775-2.131-9.682-8.027-9.682-14.61v-10.375c0-8.694 7.044-15.738 15.738-15.738h97.15c109.879 0 201.586-83.259 212.74-191.761l-1.116-4.383c-68.229-99.53-171.625-170.427-289.788-197.226-3.535-0.802-7.052 1.414-7.853 4.95s1.414 7.052 4.95 7.853c114.126 25.883 214.107 94.078 280.489 189.85-11.557 100.655-97.097 177.588-199.421 177.588zM373.106-41.255l31.245 210.149h-15.291v48.756l-78.22-52.141-66.466 166.183c-95.366-7.29-172.992-81.458-183.961-177 35.753-51.587 80.943-94.865 132.583-127.921v99.671h13.128v-107.771c50.792-30.192 107.343-50.739 166.981-59.926v0zM516.65-41.182c59.464 9.223 115.849 29.741 166.507 59.852v107.771h13.128v-99.671c51.641 33.055 96.83 76.334 132.583 127.921-10.97 95.541-88.595 169.709-183.961 177l-66.466-166.183-78.22 52.141v-48.756h-15.274l31.703-210.075zM344.285 332.28l44.776-53.731v1.505h111.16v-1.505l44.776 53.731h-12.699c-15.945 0-28.866 12.922-28.866 28.866v10.538c0 12.164 7.782 22.822 19.367 27.172 84.148 31.65 150.863 170.179 143.54 281.573-34.168 45.362-86.996 80.954-144.563 98.035-19.536-42.414-62.061-70.395-109.811-70.395-17.075 0-33.655 3.544-48.93 10.317-45.048 19.956-96.034 10.12-126.032-25.559-1.008-1.19-2.030-2.436-3.358-4.088l-5.161-6.414-4.858 6.148c-0.768-7.514-1.161-15.139-1.161-22.855 0-106.139 67.275-238.382 145.125-267.171 11.047-4.076 18.261-14.962 18.261-26.925v-10.375c0-15.945-12.922-28.866-28.866-28.866h-12.699zM248.78 345.127c3.662 0.187 7.348 0.282 11.054 0.282h97.15c8.694 0 15.738 7.044 15.738 15.738v10.375c0 6.583-3.908 12.479-9.682 14.61-83.805 30.991-153.704 168.394-153.704 279.486 0 130.143 105.655 235.575 235.812 235.289 9.478-0.068 18.062-0.554 26.594-1.495 106.893-11.957 193.648-97.971 206.459-204.73 14.246-118.805-57.1-272.877-150.784-308.114-6.584-2.472-10.856-8.324-10.856-14.883v-10.538c0-8.694 7.044-15.738 15.738-15.738h97.15c3.706 0 7.392-0.095 11.054-0.282l-84.565 0.282h82.415c0.751 0 1.471-0.099 2.15-0.282 104.92-5.364 190.908-86.637 201.685-191.479l-1.116-4.383c-89.031-129.874-236.034-209.112-396.431-209.112s-307.4 79.238-396.431 209.112l-1.116 4.383c10.778 104.843 96.766 186.116 201.686 191.48 0.679 0.183 1.399 0.282 2.15 0.282h82.415l10.94-13.128-95.505 12.846zM444.641-46.719c19.57 0 39.219 1.282 58.995 3.795l-31.966 211.818h-54.047l-31.502-211.874c19.644-2.474 39.142-3.739 58.519-3.739zM226.314 707.010l0.422-0.601c0.779-1.108 1.467-2.083 2.092-2.96 34.084 38.524 90.211 48.785 139.525 26.939 13.609-6.034 28.377-9.191 43.61-9.191 44.357 0 83.659 27.092 99.982 67.615l2.186 5.428 5.642-1.551c55.355-15.214 106.91-46.846 143.7-88.1-16.694 95.351-96.212 170.926-193.182 181.774-8.064 0.889-16.193 1.35-24.361 1.398-109.467 0.253-200.183-77.666-219.618-180.752v0zM402.189 182.022h84.904v84.904h-84.904v-84.904zM317.022 185.407l72.039 48.021v24.615l-61.865 74.238h-68.917l58.743-146.874zM562.086 332.28l-61.865-74.238v-24.615l72.039-48.021 58.744 146.874h-68.917z" />
<glyph unicode="&#xe933;" glyph-name="retail-m" d="M862.316 624.867h128.524v-446.341h-856.103v592.842h-113.902v107.789h221.691v-254.29h134.737v119.554h161.684v53.895h323.368v-173.448zM808.421 624.867v119.554h-215.579v-119.554h215.579zM431.158 624.867h107.789v65.659h-107.789v-65.659zM431.158 517.078v-230.762h107.789v230.762h-107.789zM377.263 517.078h-134.737v-230.762h134.737v230.762zM700.632 517.078h-107.789v-230.762h107.789v230.762zM754.526 517.078v-230.762h128.524v230.762h-128.524zM134.739 624.867v-107.789h107.788v107.789h-107.788zM350.316-10.105c-44.648 0-80.842 36.194-80.842 80.842s36.194 80.842 80.842 80.842c44.648 0 80.842-36.194 80.842-80.842s-36.194-80.842-80.842-80.842zM781.474-10.105c-44.648 0-80.842 36.194-80.842 80.842s36.194 80.842 80.842 80.842c44.648 0 80.842-36.194 80.842-80.842s-36.194-80.842-80.842-80.842z" />
<glyph unicode="&#xe934;" glyph-name="retail-xl" d="M182.356 132.384h753.973c3.874 0 7.014-3.14 7.014-7.014s-3.14-7.014-7.014-7.014h-753.973c-0.307 0-0.609 0.020-0.905 0.058-1.204-2.128-3.489-3.565-6.109-3.565-3.874 0-7.014 3.14-7.014 7.014v536.548h0.938c-0.597 1.032-0.938 2.229-0.938 3.507v150.795h-42.184c-1.815-31.295-27.764-56.11-59.515-56.11-32.928 0-59.616 26.689-59.616 59.616s26.689 59.616 59.616 59.616c29.338 0 53.723-21.187 58.691-49.096h53.528c3.874 0 7.014-3.14 7.014-7.014 0-2.596-1.41-4.863-3.507-6.075v-151.733c0-1.278-0.342-2.475-0.938-3.507h71.075v147.288h245.479v140.274h294.575v-52.603h175.342v-234.959h56.11v-434.849h-841.644v-91.178zM792.548 665.425h161.315v213.918h-161.315v-213.918zM182.356 644.384v-406.795h827.616v406.795h-827.616zM424.329 27.178c0-42.607-34.544-77.151-77.151-77.151s-77.151 34.544-77.151 77.151c0 42.607 34.544 77.151 77.151 77.151s77.151-34.544 77.151-77.151zM410.301 27.178c0 34.86-28.264 63.123-63.123 63.123s-63.123-28.264-63.123-63.123c0-34.86 28.264-63.123 63.123-63.123s63.123 28.264 63.123 63.123zM845.151 27.178c0-42.607-34.544-77.151-77.151-77.151s-77.151 34.544-77.151 77.151c0 42.607 34.544 77.151 77.151 77.151s77.151-34.544 77.151-77.151zM831.123 27.178c0 34.86-28.264 63.123-63.123 63.123s-63.123-28.264-63.123-63.123c0-34.86 28.264-63.123 63.123-63.123s63.123 28.264 63.123 63.123zM112.219 816.219c0 25.181-20.408 45.589-45.589 45.589s-45.589-20.408-45.589-45.589c0-25.181 20.408-45.589 45.589-45.589s45.589 20.408 45.589 45.589zM266.521 665.425h231.452v126.247h-231.452v-126.247zM512 665.425h266.521v266.521h-266.521v-266.521zM862.685 511.123h-126.247v-126.247h126.247v126.247zM876.712 511.123v-126.247h136.767c3.874 0 7.014-3.14 7.014-7.014s-3.14-7.014-7.014-7.014h-136.767v-133.26c0-3.874-3.14-7.014-7.014-7.014s-7.014 3.14-7.014 7.014v133.26h-126.247v-133.26c0-3.874-3.14-7.014-7.014-7.014s-7.014 3.14-7.014 7.014v133.26h-126.247v-133.26c0-3.874-3.14-7.014-7.014-7.014s-7.014 3.14-7.014 7.014v133.26h-126.247v-133.26c0-3.874-3.14-7.014-7.014-7.014s-7.014 3.14-7.014 7.014v133.26h-126.247v-133.26c0-3.874-3.14-7.014-7.014-7.014s-7.014 3.14-7.014 7.014v133.26h-129.753c-3.874 0-7.014 3.14-7.014 7.014s3.14 7.014 7.014 7.014h129.753v126.247h-129.753c-3.874 0-7.014 3.14-7.014 7.014s3.14 7.014 7.014 7.014h129.753v133.26c0 3.874 3.14 7.014 7.014 7.014s7.014-3.14 7.014-7.014v-133.26h126.247v133.26c0 3.874 3.14 7.014 7.014 7.014s7.014-3.14 7.014-7.014v-133.26h126.247v133.26c0 3.874 3.14 7.014 7.014 7.014s7.014-3.14 7.014-7.014v-133.26h126.247v133.26c0 3.874 3.14 7.014 7.014 7.014s7.014-3.14 7.014-7.014v-133.26h126.247v133.26c0 3.874 3.14 7.014 7.014 7.014s7.014-3.14 7.014-7.014v-133.26h136.767c3.874 0 7.014-3.14 7.014-7.014s-3.14-7.014-7.014-7.014h-136.767zM722.411 511.123h-126.247v-126.247h126.247v126.247zM582.137 511.123h-126.247v-126.247h126.247v126.247zM441.863 511.123h-126.247v-126.247h126.247v126.247z" />
<glyph unicode="&#xe935;" glyph-name="right-m" d="M788.341 446.259c0.58 9.863-2.901 20.307-12.184 29.59l-472.615 472.615c-37.132 37.132-92.83-18.566-55.698-55.698l444.766-444.766-444.766-444.766c-37.132-37.132 18.566-92.83 55.698-55.698l472.615 472.615c9.283 9.283 12.764 19.726 12.184 29.59v-3.481z" />
<glyph unicode="&#xe936;" glyph-name="right-xl" d="M255.971-10.051c-10.055-9.94-10.148-26.148-0.208-36.203s26.148-10.148 36.203-0.208l485.498 479.938c10.096 9.98 10.143 26.27 0.105 36.308l-482.718 482.718c-9.997 9.997-26.206 9.997-36.204 0s-9.997-26.206 0-36.204l464.512-464.512-467.187-461.837z" />
<glyph unicode="&#xe937;" glyph-name="saved-presentations-xl" d="M26.483 839.038v-687.597h888.007v687.597h-888.007zM928.328 852.876v-715.273h-915.683v715.273h915.683zM102.591 54.576h894.926v694.516c0 3.821 3.098 6.919 6.919 6.919s6.919-3.098 6.919-6.919v-708.354h-908.764c-3.821 0-6.919 3.098-6.919 6.919s3.098 6.919 6.919 6.919zM687.597 717.838h133.607c3.821 0 6.919 3.098 6.919 6.919s-3.098 6.919-6.919 6.919h-133.607c-3.821 0-6.919-3.098-6.919-6.919s3.098-6.919 6.919-6.919zM777.658 607.135h49.109c0.749 0 1.356 3.098 1.356 6.919s-0.607 6.919-1.356 6.919h-49.109c-0.749 0-1.356-3.098-1.356-6.919s0.607-6.919 1.356-6.919zM787.48 510.27h39.287c0.749 0 1.356 3.098 1.356 6.919s-0.607 6.919-1.356 6.919h-39.287c-0.749 0-1.356-3.098-1.356-6.919s0.607-6.919 1.356-6.919zM737.7 413.405h83.504c3.821 0 6.919 3.098 6.919 6.919s-3.098 6.919-6.919 6.919h-83.504c-3.821 0-6.919-3.098-6.919-6.919s3.098-6.919 6.919-6.919zM687.597 288.865h133.607c3.821 0 6.919 3.098 6.919 6.919s-3.098 6.919-6.919 6.919h-133.607c-3.821 0-6.919-3.098-6.919-6.919s3.098-6.919 6.919-6.919zM136.47 261.189h133.607c3.821 0 6.919 3.098 6.919 6.919s-3.098 6.919-6.919 6.919h-133.607c-3.821 0-6.919-3.098-6.919-6.919s3.098-6.919 6.919-6.919zM137.424 344.216h50.103c3.821 0 6.919 3.098 6.919 6.919s-3.098 6.919-6.919 6.919h-50.103c-3.821 0-6.919-3.098-6.919-6.919s3.098-6.919 6.919-6.919zM370.281 261.428c0 9.219-7.482 16.701-16.701 16.701s-16.701-7.482-16.701-16.701c0-9.219 7.482-16.701 16.701-16.701s16.701 7.482 16.701 16.701zM304.432 717.838h-103.784v-55.351h103.784v55.351zM318.27 717.838v-55.351h34.595v48.334l-7.017 7.017h-27.577zM358.498 724.757h8.204v-8.204l39.487-39.487c1.298-1.298 2.027-3.057 2.027-4.892v-210.335c0-3.821-3.098-6.919-6.919-6.919h-262.919c-3.821 0-6.919 3.098-6.919 6.919v262.919c0 3.821 3.098 6.919 6.919 6.919h210.335c1.835 0 3.595-0.729 4.892-2.027l4.892-4.892zM186.811 717.838h-41.514v-249.081h249.081v200.55l-27.676 27.676v-41.415c0-3.821-3.098-6.919-6.919-6.919h-166.054c-3.821 0-6.919 3.098-6.919 6.919v62.27zM269.838 510.27c-22.927 0-41.514 18.586-41.514 41.514s18.586 41.514 41.514 41.514c22.927 0 41.514-18.586 41.514-41.514s-18.586-41.514-41.514-41.514zM269.838 524.108c15.285 0 27.676 12.391 27.676 27.676s-12.391 27.676-27.676 27.676c-15.285 0-27.676-12.391-27.676-27.676s12.391-27.676 27.676-27.676z" />
<glyph unicode="&#xe938;" glyph-name="hamburger-menu" d="M0 809.412c0 33.267 27.39 60.235 60.233 60.235h903.534c33.266 0 60.233-26.736 60.233-60.235 0-33.267-27.39-60.235-60.233-60.235h-903.534c-33.266 0-60.233 26.736-60.233 60.235zM0 448c0 33.267 27.39 60.235 60.233 60.235h903.534c33.266 0 60.233-26.736 60.233-60.235 0-33.267-27.39-60.235-60.233-60.235h-903.534c-33.266 0-60.233 26.736-60.233 60.235zM0 86.588c0 33.267 27.39 60.235 60.233 60.235h903.534c33.266 0 60.233-26.736 60.233-60.235 0-33.267-27.39-60.235-60.233-60.235h-903.534c-33.266 0-60.233 26.736-60.233 60.235z" />
<glyph unicode="&#xe939;" glyph-name="radio-on" d="M1024 448c0-282.767-229.233-512-512-512s-512 229.233-512 512c0 282.767 229.233 512 512 512s512-229.233 512-512v0z" />
<glyph unicode="&#xe93a;" glyph-name="search" d="M789.947 233.016l198.752-198.752c17.387-17.387 17.387-45.576 0-62.963s-45.576-17.387-62.963 0l-198.752 198.752c-76.75-62.806-174.857-100.488-281.766-100.488-245.887 0-445.217 199.331-445.217 445.217s199.331 445.217 445.217 445.217c245.887 0 445.217-199.331 445.217-445.217 0-106.909-37.682-205.016-100.488-281.766zM445.217 158.609c196.709 0 356.174 159.464 356.174 356.174s-159.464 356.174-356.174 356.174c-196.709 0-356.174-159.464-356.174-356.174s159.464-356.174 356.174-356.174z" />
<glyph unicode="&#xe93b;" glyph-name="settings" d="M945.571 560.783c30.464 0 55.156-24.683 55.156-55.138v-115.272c0-30.469-24.688-55.156-55.156-55.156h-32.014c-8.955-31.979-21.672-62.64-37.852-91.412l22.614-22.626c21.564-21.533 21.564-56.481 0.012-78.002l-81.496-81.496c-21.531-21.562-56.452-21.562-78.006-0.008l-22.622 22.634c-28.778-16.187-59.44-28.907-91.424-37.863v-32.014c0-30.469-24.688-55.156-55.156-55.156h-115.254c-30.469 0-55.156 24.688-55.156 55.156v32.014c-31.983 8.956-62.646 21.676-91.424 37.863l-22.626-22.638c-21.55-21.55-56.471-21.55-77.99 0l-81.496 81.496c-21.564 21.533-21.564 56.481-0.016 77.998l22.63 22.642c-16.179 28.772-28.897 59.433-37.852 91.412h-32.014c-30.469 0-55.156 24.688-55.156 55.156v115.272c0 30.456 24.692 55.138 55.156 55.138h32.014c8.954 31.977 21.671 62.64 37.852 91.424l-22.626 22.626c-21.548 21.548-21.548 56.46 0.002 78.010l81.495 81.477c21.531 21.562 56.452 21.562 77.998 0.016l22.642-22.63c28.772 16.179 59.433 28.897 91.412 37.852v32.032c0 30.456 24.692 55.138 55.156 55.138h115.254c30.464 0 55.156-24.683 55.156-55.138v-32.032c31.977-8.954 62.64-21.671 91.424-37.852l22.626 22.626c21.55 21.55 56.471 21.55 77.988 0.002l81.51-81.492c21.548-21.548 21.548-56.46 0-78.008l-22.626-22.626c16.181-28.784 28.898-59.446 37.852-91.424h32.014zM945.571 514.238h-50.072c-10.823 0-20.218 7.462-22.669 18.004-9.2 39.584-24.796 77.129-46.104 111.355-5.72 9.187-4.352 21.104 3.3 28.756l35.392 35.392c3.371 3.371 3.371 8.811 0.002 12.181l-81.522 81.504c-3.353 3.357-8.784 3.357-12.153-0.012l-35.392-35.392c-7.652-7.652-19.569-9.020-28.756-3.3-34.226 21.308-71.771 36.904-111.355 46.104-10.542 2.45-18.004 11.845-18.004 22.669v50.090c0 4.745-3.849 8.593-8.611 8.593h-115.254c-4.762 0-8.611-3.848-8.611-8.593v-50.090c0-10.823-7.462-20.218-18.004-22.669-39.588-9.201-77.131-24.798-111.333-46.101-9.185-5.721-21.103-4.357-28.757 3.294l-35.415 35.397c-3.369 3.369-8.8 3.369-12.167-0.002l-81.506-81.489c-3.371-3.371-3.371-8.811 0-12.183l35.392-35.392c7.652-7.652 9.020-19.569 3.3-28.756-21.308-34.226-36.904-71.771-46.104-111.355-2.45-10.542-11.845-18.004-22.669-18.004h-50.072c-4.762 0-8.611-3.848-8.611-8.593v-115.272c0-4.762 3.848-8.611 8.611-8.611h50.072c10.823 0 20.218-7.462 22.669-18.004 9.201-39.588 24.798-77.131 46.101-111.333 5.721-9.185 4.357-21.103-3.294-28.757l-35.408-35.426c-3.356-3.351-3.356-8.791 0.012-12.153l81.52-81.52c3.353-3.357 8.784-3.357 12.149 0.008l35.392 35.41c7.654 7.658 19.578 9.026 28.768 3.3 34.212-21.317 71.753-36.915 111.348-46.118 10.542-2.45 18.004-11.845 18.004-22.669v-50.072c0-4.762 3.848-8.611 8.611-8.611h115.254c4.762 0 8.611 3.848 8.611 8.611v50.072c0 10.823 7.462 20.218 18.004 22.669 39.595 9.203 77.136 24.801 111.348 46.118 9.189 5.726 21.114 4.358 28.768-3.3l35.388-35.406c3.369-3.369 8.8-3.369 12.165 0l81.52 81.52c3.356 3.351 3.356 8.791-0.016 12.157l-35.392 35.41c-7.65 7.654-9.015 19.571-3.294 28.757 21.304 34.202 36.9 71.745 46.101 111.333 2.45 10.542 11.845 18.004 22.669 18.004h50.072c4.762 0 8.611 3.848 8.611 8.611v115.272c0 4.745-3.849 8.593-8.611 8.593zM721.455 448c0 115.684-93.771 209.455-209.455 209.455s-209.455-93.771-209.455-209.455c0-115.672 93.777-209.455 209.455-209.455s209.455 93.782 209.455 209.455zM768 448c0-141.378-114.616-256-256-256s-256 114.622-256 256c0 141.39 114.61 256 256 256s256-114.61 256-256zM649.846 448c0 76.138-61.708 137.846-137.846 137.846s-137.846-61.708-137.846-137.846c0-76.127 61.715-137.846 137.846-137.846s137.846 61.719 137.846 137.846zM696.392 448c0-101.832-82.553-184.392-184.392-184.392s-184.392 82.559-184.392 184.392c0 101.845 82.547 184.392 184.392 184.392s184.392-82.547 184.392-184.392z" />
<glyph unicode="&#xe93c;" glyph-name="shared-presentations-xl" d="M26.483 839.038v-687.597h888.007v687.597h-888.007zM928.328 852.876v-715.273h-915.683v715.273h915.683zM102.591 54.576h894.926v694.516c0 3.821 3.098 6.919 6.919 6.919s6.919-3.098 6.919-6.919v-708.354h-908.764c-3.821 0-6.919 3.098-6.919 6.919s3.098 6.919 6.919 6.919zM687.597 717.838h133.607c3.821 0 6.919 3.098 6.919 6.919s-3.098 6.919-6.919 6.919h-133.607c-3.821 0-6.919-3.098-6.919-6.919s3.098-6.919 6.919-6.919zM733.329 607.135h92.247c1.407 0 2.548 3.098 2.548 6.919s-1.141 6.919-2.548 6.919h-92.247c-1.407 0-2.548-3.098-2.548-6.919s1.141-6.919 2.548-6.919zM673.968 510.27h145.316c4.882 0 8.839 3.098 8.839 6.919s-3.957 6.919-8.839 6.919h-145.316c-4.882 0-8.839-3.098-8.839-6.919s3.957-6.919 8.839-6.919zM774.186 413.405h43.457c5.788 0 10.48 3.098 10.48 6.919s-4.692 6.919-10.48 6.919h-43.457c-5.788 0-10.48-3.098-10.48-6.919s4.692-6.919 10.48-6.919zM648.605 288.865h170.679c4.882 0 8.839 3.098 8.839 6.919s-3.957 6.919-8.839 6.919h-170.679c-4.882 0-8.839-3.098-8.839-6.919s3.957-6.919 8.839-6.919zM136.47 261.189h133.607c3.821 0 6.919 3.098 6.919 6.919s-3.098 6.919-6.919 6.919h-133.607c-3.821 0-6.919-3.098-6.919-6.919s3.098-6.919 6.919-6.919zM136.47 344.216h33.402c3.821 0 6.919 3.098 6.919 6.919s-3.098 6.919-6.919 6.919h-33.402c-3.821 0-6.919-3.098-6.919-6.919s3.098-6.919 6.919-6.919zM228.324 593.297c0 22.923-18.59 41.514-41.514 41.514s-41.514-18.59-41.514-41.514c0-22.923 18.59-41.514 41.514-41.514s41.514 18.59 41.514 41.514zM242.162 593.297c0-30.566-24.786-55.351-55.351-55.351s-55.351 24.786-55.351 55.351c0 30.566 24.786 55.351 55.351 55.351s55.351-24.786 55.351-55.351zM352.865 648.649c22.923 0 41.514 18.59 41.514 41.514s-18.59 41.514-41.514 41.514c-22.923 0-41.514-18.59-41.514-41.514s18.59-41.514 41.514-41.514zM352.865 634.811c-30.566 0-55.351 24.786-55.351 55.351s24.786 55.351 55.351 55.351c30.566 0 55.351-24.786 55.351-55.351s-24.786-55.351-55.351-55.351zM299.735 498.167l-82.168 54.778c-7.676 5.117 0 16.631 7.676 11.514l80.13-53.42c9.676 16.119 27.326 26.907 47.491 26.907 30.566 0 55.351-24.786 55.351-55.351s-24.786-55.351-55.351-55.351c-30.566 0-55.351 24.786-55.351 55.351 0 5.407 0.776 10.633 2.222 15.573zM352.865 441.081c22.923 0 41.514 18.59 41.514 41.514s-18.59 41.514-41.514 41.514c-22.923 0-41.514-18.59-41.514-41.514s18.59-41.514 41.514-41.514zM225.243 619.811l83.027 55.351 7.676-11.514-83.027-55.351-7.676 11.514z" />
<glyph unicode="&#xe93d;" glyph-name="share-l" d="M987.429 448c0 262.568-212.861 475.429-475.429 475.429s-475.429-212.861-475.429-475.429c0-262.568 212.861-475.429 475.429-475.429s475.429 212.861 475.429 475.429zM1011.81 448c0-276.033-223.777-499.81-499.81-499.81s-499.81 223.777-499.81 499.81c0 276.033 223.777 499.81 499.81 499.81s499.81-223.777 499.81-499.81zM353.524 460.19c0 40.388-32.754 73.143-73.143 73.143s-73.143-32.754-73.143-73.143c0-40.388 32.754-73.143 73.143-73.143s73.143 32.754 73.143 73.143zM377.905 460.19c0-53.854-43.67-97.524-97.524-97.524s-97.524 43.67-97.524 97.524c0 53.854 43.67 97.524 97.524 97.524s97.524-43.67 97.524-97.524zM670.476 606.476c40.388 0 73.143 32.754 73.143 73.143s-32.754 73.143-73.143 73.143c-40.388 0-73.143-32.754-73.143-73.143s32.754-73.143 73.143-73.143zM670.476 582.095c-53.854 0-97.524 43.67-97.524 97.524s43.67 97.524 97.524 97.524c53.854 0 97.524-43.67 97.524-97.524s-43.67-97.524-97.524-97.524zM670.476 143.238c40.388 0 73.143 32.754 73.143 73.143s-32.754 73.143-73.143 73.143c-40.388 0-73.143-32.754-73.143-73.143s32.754-73.143 73.143-73.143zM670.476 118.857c-53.854 0-97.524 43.67-97.524 97.524s43.67 97.524 97.524 97.524c53.854 0 97.524-43.67 97.524-97.524s-43.67-97.524-97.524-97.524zM365.179 422.886l225.682-144.208c13.697-8.752 0.569-29.297-13.128-20.545l-225.682 144.208c-13.697 8.752-0.569 29.297 13.128 20.545zM352.051 513.078l225.682 144.208c13.697 8.752 26.824-11.793 13.128-20.545l-225.682-144.208c-13.697-8.752-26.824 11.793-13.128 20.545z" />
<glyph unicode="&#xe93e;" glyph-name="share-m" d="M390.115 750.161c-138.518-48.056-238.096-175.098-248.655-324.59-1.423-20.148-18.91-35.327-39.057-33.904s-35.327 18.91-33.904 39.057c12.954 183.393 137.682 338.445 309.929 392.602 7.974 66.692 64.731 118.388 133.572 118.388 74.304 0 134.531-60.227 134.531-134.531s-60.227-134.531-134.531-134.531c-53.919 0-100.425 31.714-121.885 77.508zM261.881 124.32c67.64-61.724 156.009-96.892 250.119-96.892 49.324 0 97.302 9.652 141.993 28.157 18.661 7.727 40.053-1.137 47.78-19.798s-1.137-40.053-19.798-47.78c-53.512-22.157-110.993-33.721-169.975-33.721-116.744 0-226.251 45.301-308.233 124.267-15.715-6.435-32.918-9.982-50.95-9.982-74.304 0-134.531 60.227-134.531 134.531s60.227 134.531 134.531 134.531c74.304 0 134.531-60.227 134.531-134.531 0-29.423-9.444-56.639-25.466-78.782zM878.423 337.441c3.427 20.292 5.169 40.855 5.169 61.579 0 130.575-67.889 249.401-177.101 316.646-17.199 10.59-22.557 33.117-11.967 50.316s33.117 22.557 50.316 11.967c130.612-80.422 211.895-222.69 211.895-378.929 0-28.916-2.832-57.564-8.376-85.709 34.684-24.332 57.355-64.621 57.355-110.21 0-74.304-60.227-134.531-134.531-134.531s-134.531 60.227-134.531 134.531c0 74.304 60.227 134.531 134.531 134.531 2.429 0 4.842-0.064 7.239-0.191zM573.388 807.184c0 33.908-27.479 61.388-61.388 61.388s-61.388-27.479-61.388-61.388c0-33.908 27.479-61.388 61.388-61.388s61.388 27.479 61.388 61.388zM214.204 203.102c0 33.908-27.479 61.388-61.388 61.388s-61.388-27.479-61.388-61.388c0-33.908 27.479-61.388 61.388-61.388s61.388 27.479 61.388 61.388zM932.571 203.102c0 33.908-27.479 61.388-61.388 61.388s-61.388-27.479-61.388-61.388c0-33.908 27.479-61.388 61.388-61.388s61.388 27.479 61.388 61.388z" />
<glyph unicode="&#xe93f;" glyph-name="softserve-logo" d="M0 378.814v0l8.672 11.739 0.876-0.973c0.133-0.141 13.408-14.595 35.185-14.595 11.52 0 23.146 5.72 23.146 18.51 0 11.391-12.502 16.45-26.981 22.314-17.817 7.213-38.015 15.386-38.015 38.239 0 24.172 21.945 35.181 42.332 35.181 25.613 0 37.49-13.287 37.982-13.851l0.527-0.605-8.575-14.703-0.982 1.064c-0.1 0.113-10.273 10.934-29.435 10.934-11.074 0-22.905-4.736-22.905-18.020 0-11.493 12.483-16.467 26.941-22.231 17.839-7.119 38.061-15.181 38.061-38.322 0-19.958-16.604-34.635-39.838-35.618h-5.231c-13.994 0.54-24.555 5.144-31.093 9.046-5.532 3.305-9.093 6.587-10.668 8.182v3.709zM168.592 357.876c-35.096 1.385-62.208 29.988-62.208 66.262 0 36.494 28.496 65.090 64.877 65.090s64.88-28.596 64.88-65.090c0-36.274-27.114-64.877-62.21-66.262h-5.339zM315.001 535.9v0c0.855-0.094 1.341-0.176 1.389-0.186l0.901-0.152v-17.21l-1.287 0.263c-0.024 0.006-2.348 0.464-5.54 0.464-22.613 0-25.989-18.637-25.989-29.743v-4.775h30.898v-16.16h-30.898v-107.733h-18.445v107.733h-16.435v16.16h16.435v4.775c0 36.71 22.504 45.009 36.86 46.564h12.11zM390.709 357.876v0c-16.445 1.21-39.28 9.728-39.28 47.661v62.508h-16.127v16.489h16.373v36.21h18.567v-36.21h30.785v-16.489h-30.785v-60.76c0-27.924 16.611-32.090 26.511-32.090 3.241 0 5.364 0.467 5.383 0.473l1.336 0.296v-17.567l-0.903-0.166c-0.070-0.014-1.125-0.207-2.962-0.354h-8.897zM469.832 357.876v0c-27.519 1.794-42.804 18.297-42.804 18.297l13.963 21.905c0 0 13.481-13.785 33.465-13.785 8.664 0 16.129 3.937 16.129 11.319 0 18.706-59.705 16.243-59.705 56.599 0 23.373 20.463 36.909 46.944 36.909 27.687 0 41.169-14.272 41.169-14.272l-11.315-23.132c0 0-11.317 10.829-30.092 10.829-7.944 0-15.651-3.448-15.651-11.322 0-17.716 59.708-15.502 59.708-55.856 0-19.735-15.863-35.748-42.125-37.492h-9.687zM602.596 357.876c-37.719 2.378-60.917 31.366-60.917 65.543 0 38.634 25.764 65.701 62.362 65.701 35.386 0 54.404-26.326 54.404-59.549 0-3.688-0.722-12.054-0.722-12.054h-84.745c1.926-21.905 18.542-33.224 36.835-33.224 19.743 0 35.391 13.785 35.391 13.785l11.799-22.392c0 0-16.77-16.043-44.41-17.81h-9.997zM689.223 486.168h29.367v-21.653c0-4.678-0.476-8.855-0.476-8.855h0.476c5.542 17.957 20.225 32.228 39.005 32.228 2.889 0 5.537-0.489 5.537-0.489v-30.758c0 0-3.132 0.489-7.225 0.489-13 0-27.679-7.625-33.46-26.328-1.931-6.149-2.651-13.038-2.651-20.42v-49.713h-30.574v125.499zM776.446 486.168h32.264l25.515-77.755c2.41-7.385 4.095-15.729 4.339-15.729h0.479c0.238 0 1.923 8.344 4.333 15.729l25.518 77.755h32.256l-44.055-125.499h-36.113l-44.536 125.499zM1024 444.931v-27.414h-84.007c1.923-21.905 18.531-33.224 36.827-33.224 19.743 0 35.391 13.785 35.391 13.785l11.789-22.368v-0.035c-0.517-0.488-17.189-16.059-44.401-17.799h-9.997c-37.714 2.378-60.91 31.366-60.91 65.543 0 38.634 25.764 65.701 62.354 65.701 29.72 0 47.894-18.565 52.955-44.19v0zM217.193 424.139c0 26.738-20.173 47.68-45.932 47.68-25.756 0-45.932-20.943-45.932-47.68 0-27.564 20.176-49.154 45.932-49.154 25.759 0 45.932 21.59 45.932 49.154zM627.63 438.922c-0.481 16.981-10.836 26.085-24.314 26.085-15.648 0-26.484-9.845-29.37-26.085h53.684zM994.64 438.922c-0.481 16.981-10.836 26.085-24.317 26.085-15.645 0-26.478-9.845-29.37-26.085h53.687z" />
<glyph unicode="&#xe940;" glyph-name="status-planned" d="M938.667 448c0 235.639-191.027 426.667-426.667 426.667s-426.667-191.027-426.667-426.667c0-235.639 191.027-426.667 426.667-426.667s426.667 191.027 426.667 426.667zM1024 448c0-282.768-229.232-512-512-512s-512 229.232-512 512c0 282.768 229.232 512 512 512s512-229.232 512-512z" />
<glyph unicode="&#xe941;" glyph-name="status-done" d="M139.315 468.544c-31.544 25.235-77.572 20.121-102.807-11.423s-20.121-77.572 11.423-102.807l321.829-257.463c30.392-24.314 74.502-20.568 100.36 8.522l514.926 579.291c26.837 30.192 24.118 76.424-6.074 103.261s-76.424 24.118-103.261-6.074l-468.791-527.39-267.604 214.083z" />
<glyph unicode="&#xe942;" glyph-name="checkbox-on-big" horiz-adv-x="1323" d="M1161.165 932.846l151.497-155.705-819.486-815.811-454.72 452.729 152.936 154.339 301.823-301.798z" />
<glyph unicode="&#xe943;" glyph-name="top-ad-hoc" d="M184.32 632.32v-614.4h655.36v614.4h-655.36zM921.6-64h-819.2v778.24h819.2v-778.24zM266.24 714.24v-81.92h286.72v81.92h-286.72zM921.6 796.16h-327.68v81.92c8.354-0.344 117.58-0.344 327.68 0v-81.92zM266.24 878.080v-81.92h-163.84v81.92h163.84zM439.659 554.449l72.341-58.229v381.86h-163.84v-393.421l91.499 69.789zM438.299 450.382l-172.059-131.236v640.853h327.68v-634.88l-155.621 125.262zM529.554 181.76h210.651c9.695 0 17.554-6.113 17.554-13.653v-54.613c0-7.541-7.859-13.653-17.554-13.653h-210.651c-9.695 0-17.554 6.113-17.554 13.653v54.613c0 7.541 7.859 13.653 17.554 13.653z" />
<glyph unicode="&#xe944;" glyph-name="top-bneed" d="M588.497 405.333h-332.497v85.333h323.66l-110.327 110.327 60.34 60.34 170.667-170.667h1.090l32.695-31.106v-2.68l0.045-0.045-0.045-0.045v-25.678l-0.372-0.371 0.416-0.416-204.497-204.497-60.34 60.34 119.163 119.163zM512-64c-282.77 0-512 229.23-512 512s229.23 512 512 512c282.77 0 512-229.23 512-512s-229.23-512-512-512zM512 21.333c235.641 0 426.667 191.025 426.667 426.667s-191.025 426.667-426.667 426.667c-235.641 0-426.667-191.025-426.667-426.667s191.025-426.667 426.667-426.667z" />
<glyph unicode="&#xe945;" glyph-name="top-curriculum" d="M716.8 934.4h102.4v-153.6h-102.4v153.6zM204.8 934.4h102.4v-153.6h-102.4v153.6zM921.6 729.6v102.4h102.4v-870.4h-1024v870.4h102.4v-102.4h307.2v51.2h256v-51.2h256zM921.6 678.4h-819.2v-614.4h819.2v614.4zM256 524.8h102.4v-102.4h-102.4v102.4zM460.8 422.4v102.4h102.4v-102.4h-102.4zM256 320h102.4v-102.4h-102.4v102.4zM460.8 217.6v102.4h102.4v-102.4h-102.4zM665.6 422.4v102.4h102.4v-102.4h-102.4zM665.6 217.6v102.4h102.4v-102.4h-102.4z" />
<glyph unicode="&#xe946;" glyph-name="top-industries" d="M988.513 85.333h-945.846c-19.597 0-42.667 25.205-42.667 45.333v506.667c0 20.128 23.069 45.333 42.667 45.333h938.667c19.597 0 42.667-25.205 42.667-45.333v-506.667c0-20.128-15.89-45.333-35.487-45.333zM938.667 172.978v422.044c0-2.223-132.432 0-128 0l-597.333 2.311c4.432 0-128-4.534-128-2.311v-422.044c0 2.223 4.432-2.311 0-2.311h852.563c0.482 1.030 0.77 1.966 0.77 2.311zM810.667 725.333h128v-42.667h-128v42.667zM85.333 725.333h128v-42.667h-128v42.667zM768 640h85.333v-512h-85.333v512zM170.667 640h85.333v-512h-85.333v512zM725.333 640h-384v128.834c0 23.116 18.97 41.832 42.355 41.832h299.29c23.386 0 42.355-18.716 42.355-41.832v-128.834zM682.667 768h-298.667v-85.333h298.667v85.333z" />
<glyph unicode="&#xe947;" glyph-name="top-learn" d="M640 64c0-58.914-47.753-106.667-106.667-106.667s-106.667 47.753-106.667 106.667c0 58.914 47.753 106.667 106.667 106.667s106.667-47.753 106.667-106.667zM512 85.333v-42.667h42.667v42.667h-42.667zM0 810.667h1024v-42.667h-1024v42.667zM0 938.667h1024v-85.333h-1024v85.333zM64 170.667c-11.782 0-21.333 19.103-21.333 42.667s9.551 42.667 21.333 42.667h896c11.782 0 21.333-19.103 21.333-42.667s-9.551-42.667-21.333-42.667h-896zM557.866 473.722l122.655 122.655c-2.294 7.151-3.532 14.775-3.532 22.689 0 40.985 33.221 74.206 74.206 74.206s74.206-33.221 74.206-74.206c0-40.985-33.221-74.206-74.206-74.206-17.217 0-33.063 5.862-45.653 15.699l-117.257-117.257c5.594-10.431 8.766-22.355 8.766-35.020 0-40.985-33.221-74.206-74.206-74.206s-74.206 33.221-74.206 74.206c0 17.217 5.862 33.063 15.699 45.653l-18.798 18.798c-12.589-9.837-28.436-15.699-45.653-15.699s-33.063 5.862-45.653 15.699l-18.798-18.798c9.837-12.589 15.699-28.436 15.699-45.653 0-40.985-33.221-74.206-74.206-74.206s-74.206 33.221-74.206 74.206c0 40.985 33.221 74.206 74.206 74.206 7.913 0 15.537-1.238 22.689-3.532l29.595 29.595c-2.294 7.151-3.532 14.775-3.532 22.689 0 40.985 33.221 74.206 74.206 74.206s74.206-33.221 74.206-74.206c0-7.913-1.238-15.537-3.532-22.689l29.595-29.595c7.151 2.294 14.775 3.532 22.689 3.532 12.665 0 24.589-3.172 35.020-8.766v0zM431.074 531.239c0 17.226-13.96 31.186-31.186 31.186s-31.186-13.96-31.186-31.186c0-17.226 13.96-31.186 31.186-31.186s31.186 13.96 31.186 31.186zM782.381 619.066c0 17.226-13.96 31.186-31.186 31.186s-31.186-13.96-31.186-31.186c0-17.226 13.96-31.186 31.186-31.186s31.186 13.96 31.186 31.186zM554.032 408.282c0 17.226-13.96 31.186-31.186 31.186s-31.186-13.96-31.186-31.186c0-17.226 13.96-31.186 31.186-31.186s31.186 13.96 31.186 31.186zM308.117 408.282c0 17.226-13.96 31.186-31.186 31.186s-31.186-13.96-31.186-31.186c0-17.226 13.96-31.186 31.186-31.186s31.186 13.96 31.186 31.186zM170.667 768v-554.667h682.667v554.667h-682.667zM85.333 768h853.333v-597.333h-853.333v597.333z" />
<glyph unicode="&#xe948;" glyph-name="top-myprofile" d="M934.957 47.304h-845.913c-49.174 0-89.043 39.869-89.043 89.043v467.478c0 49.174 39.869 89.043 89.043 89.043h333.913v89.043c0 49.174 39.869 89.043 89.043 89.043s89.043-39.869 89.043-89.043v-89.043h333.913c49.174 0 89.043-39.869 89.043-89.043v-467.478c0-49.174-39.869-89.043-89.043-89.043zM356.486 214.528c0-0.067 0-0.089 0-0.089-0.089 0-0.401 17.386-0.401 17.386s25.956 13.379 45.212 30.675c11.286 9.283 16.495 30.319 16.495 30.319 3.050 18.432 5.298 64.045 5.298 82.432 0 45.902-22.995 95.277-89.199 95.277v0.022c-66.204 0-89.199-49.397-89.199-95.277 0-18.387 2.271-64 5.298-82.432 0 0 5.209-21.037 16.495-30.319 19.256-17.297 45.212-30.675 45.212-30.675s-0.312-17.386-0.401-17.386c0 0 0 0.022 0 0.089 0 0 0.646-25.511 0.646-33.102 0-30.319-30.386-44.922-49.486-44.922-0.045 0-0.045 0-0.067 0-57.722-2.515-71.346-21.727-71.457-21.905-3.517-5.654-8.415-11.264-12.889-22.795h311.741c-4.474 11.531-9.372 17.141-12.956 22.751-0.111 0.2-13.735 19.389-71.457 21.905-0.022 0-0.022 0-0.067 0-19.078 0-49.486 14.581-49.486 44.922 0 7.613 0.668 33.124 0.668 33.124zM556.522 781.913c0 24.576-19.946 44.522-44.522 44.522s-44.522-19.946-44.522-44.522v-133.565c0-24.576 19.946-44.522 44.522-44.522s44.522 19.946 44.522 44.522v133.565zM979.478 603.826c0 24.576-19.946 44.522-44.522 44.522h-333.913c0-49.174-39.869-89.043-89.043-89.043s-89.043 39.869-89.043 89.043h-333.913c-24.576 0-44.522-19.946-44.522-44.522v-467.478c0-24.576 19.946-44.522 44.522-44.522h40.003c5.142 13.112 14.603 34.482 25.823 49.864 0.557 0.312 18.877 38.712 111.26 39.847 0.134 0.467 0.223 23.196 0.49 22.862-7.123 4.497-16.406 11.487-23.396 18.165-5.677 3.473-25.845 22.906-32.323 57.5-1.937 12.065-10.863 68.986-10.863 92.739 0 70.589 28.16 142.047 132.519 142.047 0.467 0 2.226 0 2.694 0 104.359 0 132.519-71.457 132.519-142.047 0-23.752-8.927-80.673-10.863-92.739-6.478-34.593-26.646-54.027-32.323-57.5-6.968-6.701-16.25-13.668-23.396-18.165 0.289 0.334 0.378-22.417 0.49-22.862 92.405-1.135 110.726-39.535 111.26-39.847 11.219-15.382 20.68-36.753 25.823-49.864h396.199c24.576 0 44.522 19.946 44.522 44.522v467.478zM868.174 403.478h-267.13c-12.31 0-22.261 9.951-22.261 22.261s9.951 22.261 22.261 22.261h267.13c12.31 0 22.261-9.951 22.261-22.261s-9.951-22.261-22.261-22.261zM601.043 314.435h44.522c12.31 0 22.261-9.951 22.261-22.261s-9.951-22.261-22.261-22.261h-44.522c-12.31 0-22.261 9.951-22.261 22.261s9.951 22.261 22.261 22.261zM601.043 225.391h133.565c12.31 0 22.261-9.951 22.261-22.261s-9.951-22.261-22.261-22.261h-133.565c-12.31 0-22.261 9.951-22.261 22.261s9.951 22.261 22.261 22.261zM690.087 292.174c0 12.31 9.951 22.261 22.261 22.261h89.043c12.31 0 22.261-9.951 22.261-22.261s-9.951-22.261-22.261-22.261h-89.043c-12.31 0-22.261 9.951-22.261 22.261zM489.739 781.913h44.522v-44.522h-44.522v44.522z" />
<glyph unicode="&#xe949;" glyph-name="top-news" d="M953.177 917.333h-670.876c-39.197 0-70.823-31.736-70.823-70.461v-117.906c-0.4-7.981-2.913-20.701-15.013-20.654-26.505 0.126-64.997 0.299-112.165 0.472-60.468 0.283-78.762-42.33-84.3-71.5v-487.879c0 0 1.825-49.635 14.101-79.245 6.082-13.16 13.781-26.431 23.4-40.331 15.493-22.369 39.165-34.192 58.563-40.441-0.048-0.016 9.251-7.336 78.458-10.72h786.018c35.66 3.684 63.461 33.231 63.461 69.722v798.484c-0.016 38.725-31.626 70.461-70.823 70.461zM168.377 132.476c-0.294-2.677-0.495-5.178-0.848-7.99 0.025 0.027-3.031-30.893-8.085-52.619-1.99-9.166-6.179-12.533-8.404-13.669-24.524-6.868-37.302 7.030-40.174 10.816-3.602 5.503-7.464 13.155-11.208 24.647-0.134 0.379-0.294 0.662-0.411 1.055-0.269 0.838-0.428 1.649-0.68 2.488-0.63 2.069-1.259 3.894-1.881 6.165-0.319 1.203-0.495 2.312-0.714 3.448-7.38 27.337-10.705 52.43-10.637 82.728 0.067 34.773 0.705 355.885 0.705 355.885s-1.704 73.535 28.714 73.237c25.8-0.257 43.826-0.433 48.754-0.473 0.89-0.027 1.478-0.027 1.478-0.027 2.762-0.406 7.313-3.083 7.355-17.387l-0.017-8.139 0.050-381.099c-0.008-18.739-3.333-69.181-3.996-79.064zM884.297 64h-516.768c-15.208 0.072-33.289 0.187-51.482 0.446-13.736 0.216-16.932 9.234-17.38 16.383 0.392 8.592 0.392 239.785 0 693.578 0 31.673 24.332 57.593 54.411 57.593h531.205c30.093 0 54.383-25.92 54.383-57.593v-652.842c0.014-31.846-24.262-57.564-54.369-57.564zM405.566 703.874c-15.494 0-21.247-21.966-21.551-42.532-0.694-36.562 21.565-42.675 21.565-42.675s388.46 0 417.758 0c29.327 0 29.992 25.308 29.992 42.618 0.332 47.245-29.081 42.589-29.081 42.589h-418.683zM405.578 533.207c-15.479 0-21.202-21.987-21.564-42.547-0.665-36.55 21.564-42.661 21.564-42.661s388.48 0 417.777 0c29.311 0 29.975 25.299 29.975 42.604 0.347 47.258-29.065 42.604-29.065 42.604h-418.687zM405.578 362.541c-15.479 0-21.202-22.016-21.564-42.575-0.665-36.579 21.564-42.632 21.564-42.632s388.48 0 417.777 0c29.311 0 29.975 25.299 29.975 42.604 0.347 47.258-29.065 42.604-29.065 42.604h-418.687z" />
<glyph unicode="&#xe94a;" glyph-name="top-persona" d="M490.54 17.767c12.077-0.002 12.077-0.002 24.036-0.008 169.193-0.082 233.786 1.91 295.040 12.092 65.452 10.88 89.707 27.212 89.707 49.233 0 92.859-201.883 224.831-408.783 224.831s-408.783-131.972-408.783-224.831c0-22.021 24.255-38.352 89.707-49.233 61.253-10.183 125.847-12.175 295.040-12.092 11.96 0.006 11.96 0.006 24.036 0.008zM490.54-63.99c-12.044-0.002-12.044-0.002-23.997-0.008-174.582-0.085-240.875 1.96-308.486 13.199-100.196 16.656-158.056 55.615-158.056 129.883 0 147.115 243.952 306.587 490.54 306.587s490.54-159.473 490.54-306.587c0-74.268-57.861-113.226-158.056-129.883-67.612-11.24-133.904-13.284-308.486-13.199-11.953 0.006-11.953 0.006-23.997 0.008zM470.1 385.672c123.466 0 224.831 109.162 224.831 245.27s-101.365 245.27-224.831 245.27c-123.466 0-224.831-109.162-224.831-245.27s101.365-245.27 224.831-245.27zM470.1 303.915c-170.028 0-306.587 147.064-306.587 327.026s136.559 327.026 306.587 327.026c170.028 0 306.587-147.064 306.587-327.026s-136.559-327.026-306.587-327.026z" />
<glyph unicode="&#xe94b;" glyph-name="top-present" d="M460.144 310.985l180.512 115.681-180.512 115.681v-231.362zM384 661.333l384-234.667-384-234.667v469.333zM512 21.333c235.641 0 426.667 191.025 426.667 426.667s-191.025 426.667-426.667 426.667c-235.641 0-426.667-191.025-426.667-426.667s191.025-426.667 426.667-426.667zM512-64c-282.77 0-512 229.23-512 512s229.23 512 512 512c282.77 0 512-229.23 512-512s-229.23-512-512-512z" />
<glyph unicode="&#xe94c;" glyph-name="top-presentatations" d="M93.091 541.091v-465.455h837.818v465.455h-837.818zM0 634.182h1024v-651.636h-1024v651.636zM93.091 773.818h837.818v-93.091h-837.818v93.091zM232.727 913.455h558.545v-93.091h-558.545v93.091z" />
<glyph unicode="&#xe94d;" glyph-name="top-studio" d="M81.7 17.7c-93.19 93.19-93.19 244.282 0 337.472s244.282 93.19 337.472 0c93.19-93.19 93.19-244.282 0-337.472s-244.282-93.19-337.472 0zM156.694 92.694c51.772-51.772 135.712-51.772 187.484 0s51.772 135.712 0 187.484c-51.772 51.772-135.712 51.772-187.484 0s-51.772-135.712 0-187.484zM81.7 542.656c-93.19 93.19-93.19 244.282 0 337.472s244.282 93.19 337.472 0c93.19-93.19 93.19-244.282 0-337.472s-244.282-93.19-337.472 0zM156.694 617.65c51.772-51.772 135.712-51.772 187.484 0s51.772 135.712 0 187.484c-51.772 51.772-135.712 51.772-187.484 0s-51.772-135.712 0-187.484zM606.656 17.7c-93.19 93.19-93.19 244.282 0 337.472s244.282 93.19 337.472 0c93.19-93.19 93.19-244.282 0-337.472s-244.282-93.19-337.472 0zM681.65 92.694c51.772-51.772 135.712-51.772 187.484 0s51.772 135.712 0 187.484c-51.772 51.772-135.712 51.772-187.484 0s-51.772-135.712 0-187.484zM606.656 542.656c-93.19 93.19-93.19 244.282 0 337.472s244.282 93.19 337.472 0c93.19-93.19 93.19-244.282 0-337.472s-244.282-93.19-337.472 0zM681.65 617.65c51.772-51.772 135.712-51.772 187.484 0s51.772 135.712 0 187.484c-51.772 51.772-135.712 51.772-187.484 0s-51.772-135.712 0-187.484z" />
<glyph unicode="&#xe94e;" glyph-name="video-l" d="M512-64c-282.77 0-512 229.23-512 512s229.23 512 512 512c282.77 0 512-229.23 512-512s-229.23-512-512-512zM789.524 436.19l-401.524 289.333v-578.667l401.524 289.333z" />
<glyph unicode="&#xe94f;" glyph-name="video-m" d="M793.382 806.4h-585.415c-114.857 0-207.968-93.964-207.968-209.876v-295.33c0-115.911 93.11-209.876 207.968-209.876h585.415c114.857 0 207.968 93.964 207.968 209.876v295.33c0 115.911-93.11 209.876-207.968 209.876v0zM652.735 434.49l-273.818-131.793c-7.296-3.512-15.724 1.857-15.724 10.013v271.823c0 8.273 8.649 13.635 15.961 9.895l273.818-140.030c8.141-4.163 8-15.945-0.237-19.908v0z" />
</font>
</defs>
</svg>
